<svg width="105" height="69" viewBox="0 0 105 69" fill="none" xmlns="http://www.w3.org/2000/svg">
<path d="M2.512 11.416L0.592 6.232L11.632 1.816H17.296V67H10.864V7.86399L2.512 11.416ZM28.9495 49.24V44.152H51.1255V49.24H28.9495ZM69.2635 40.024C69.2635 43.608 69.7115 47.256 70.6075 50.968C71.3115 54.232 72.8475 57.048 75.2155 59.416C77.4555 61.72 80.5275 62.872 84.4315 62.872C88.2715 62.872 91.5035 61.368 94.1275 58.36C96.8155 55.288 98.1595 51.064 98.1595 45.688C98.1595 40.12 96.8155 36.088 94.1275 33.592C91.5675 31.288 88.3035 30.136 84.3355 30.136C79.4715 30.136 74.4795 32.056 69.3595 35.896C69.2955 36.408 69.2635 37.784 69.2635 40.024ZM84.4315 24.856C90.0635 24.856 94.8635 26.584 98.8315 30.04C102.928 33.688 104.976 38.84 104.976 45.496C104.976 50.104 103.824 54.328 101.52 58.168C99.0235 62.264 95.7275 65.112 91.6315 66.712C89.3275 67.608 86.9275 68.056 84.4315 68.056C76.9435 68.056 71.3435 65.176 67.6315 59.416C64.0475 53.848 62.2555 45.976 62.2555 35.8C62.2555 24.664 64.3995 15.992 68.6875 9.784C72.9755 3.64 78.4795 0.567997 85.1995 0.567997C89.6795 0.567997 94.4795 1.976 99.5995 4.792L97.7755 9.784C93.2315 7.224 89.0715 5.944 85.2955 5.944C79.0875 5.944 74.7035 9.496 72.1435 16.6C70.7355 20.376 69.9035 24.888 69.6475 30.136C74.5115 26.616 79.4395 24.856 84.4315 24.856Z" fill="#333333"/>
</svg>
