<svg width="236" height="397" viewBox="0 0 236 397" fill="none" xmlns="http://www.w3.org/2000/svg">
<g filter="url(#filter0_d_197_38)">
<g filter="url(#filter1_d_197_38)">
<rect x="37.8921" y="10" width="123.243" height="357" rx="10" fill="white"/>
</g>
<path d="M72.9571 35.8652V56.4898H126.036V35.8652H72.9571ZM80.433 68.8645C69.2872 80.263 51.2432 100.626 51.2432 117.676V144.488H147.784V117.676C147.784 100.626 129.774 80.263 118.56 68.8645H80.433ZM51.2432 156.862V167.862H147.784V156.862H51.2432ZM51.2432 180.237V191.237H147.784V180.237H51.2432ZM51.2432 203.611V214.611H147.784V203.611H51.2432ZM51.2432 226.986V343.996C80.501 352.727 118.492 352.727 147.784 343.996V226.986H51.2432Z" fill="#29DA9A" fill-opacity="0.54"/>
</g>
<defs>
<filter id="filter0_d_197_38" x="0" y="10" width="236" height="365" filterUnits="userSpaceOnUse" color-interpolation-filters="sRGB">
<feFlood flood-opacity="0" result="BackgroundImageFix"/>
<feColorMatrix in="SourceAlpha" type="matrix" values="0 0 0 0 0 0 0 0 0 0 0 0 0 0 0 0 0 0 127 0" result="hardAlpha"/>
<feOffset dy="4"/>
<feGaussianBlur stdDeviation="2"/>
<feComposite in2="hardAlpha" operator="out"/>
<feColorMatrix type="matrix" values="0 0 0 0 0.878431 0 0 0 0 0.878431 0 0 0 0 0.878431 0 0 0 1 0"/>
<feBlend mode="normal" in2="BackgroundImageFix" result="effect1_dropShadow_197_38"/>
<feBlend mode="normal" in="SourceGraphic" in2="effect1_dropShadow_197_38" result="shape"/>
</filter>
<filter id="filter1_d_197_38" x="17.8921" y="0" width="163.243" height="397" filterUnits="userSpaceOnUse" color-interpolation-filters="sRGB">
<feFlood flood-opacity="0" result="BackgroundImageFix"/>
<feColorMatrix in="SourceAlpha" type="matrix" values="0 0 0 0 0 0 0 0 0 0 0 0 0 0 0 0 0 0 127 0" result="hardAlpha"/>
<feOffset dy="10"/>
<feGaussianBlur stdDeviation="10"/>
<feComposite in2="hardAlpha" operator="out"/>
<feColorMatrix type="matrix" values="0 0 0 0 0.219608 0 0 0 0 0.894118 0 0 0 0 0.682353 0 0 0 0.13 0"/>
<feBlend mode="normal" in2="BackgroundImageFix" result="effect1_dropShadow_197_38"/>
<feBlend mode="normal" in="SourceGraphic" in2="effect1_dropShadow_197_38" result="shape"/>
</filter>
</defs>
</svg>
