<svg width="511" height="575" viewBox="0 0 511 575" fill="none" xmlns="http://www.w3.org/2000/svg">
<rect width="511" height="575" fill="white"/>
<path d="M250 562.684C358.828 562.684 447.05 505.049 447.05 433.953C447.05 362.857 358.828 305.222 250 305.222C141.172 305.222 52.9502 362.857 52.9502 433.953C52.9502 505.049 141.172 562.684 250 562.684Z" fill="#F5F5F5"/>
<path d="M332 515.12L184.91 417.45C183.616 416.593 182.542 415.359 181.794 413.872C181.047 412.385 180.654 410.698 180.654 408.981C180.654 407.263 181.047 405.576 181.794 404.089C182.542 402.602 183.616 401.368 184.91 400.511L199.42 389.988C201.925 388.329 204.765 387.456 207.655 387.456C210.546 387.456 213.386 388.329 215.89 389.988L363 487.669C364.294 488.527 365.369 489.761 366.116 491.248C366.863 492.735 367.257 494.422 367.257 496.139C367.257 497.856 366.863 499.543 366.116 501.03C365.369 502.517 364.294 503.751 363 504.609L348.49 515.12C345.985 516.788 343.141 517.666 340.245 517.666C337.35 517.666 334.506 516.788 332 515.12Z" fill="#E0E0E0"/>
<path d="M108.35 426.075C125.979 426.075 140.27 416.637 140.27 404.996C140.27 393.354 125.979 383.916 108.35 383.916C90.7212 383.916 76.4302 393.354 76.4302 404.996C76.4302 416.637 90.7212 426.075 108.35 426.075Z" fill="#E6E6E6"/>
<path d="M384.16 430.905L398.16 440.162C398.16 440.162 391.01 414.322 394.82 388.274C396.26 378.43 399.35 373.543 400.43 370.909C401.51 368.276 409.88 352.003 402.43 344.551C394.98 337.099 377.65 352.084 378.59 392.184C379.017 405.31 380.889 418.32 384.16 430.905Z" fill="#ABFBDE"/>
<path opacity="0.5" d="M384.16 430.905L398.16 440.162C398.16 440.162 391.01 414.322 394.82 388.274C396.26 378.43 399.35 373.543 400.43 370.909C401.51 368.276 409.88 352.003 402.43 344.551C394.98 337.099 377.65 352.084 378.59 392.184C379.017 405.31 380.889 418.32 384.16 430.905Z" fill="black"/>
<path d="M390.67 435.781C390.568 435.784 390.468 435.749 390.384 435.683C390.299 435.618 390.235 435.523 390.2 435.413C390.15 435.241 384.8 418.428 384.97 391.403C385.14 364.378 397.49 349.704 397.61 349.566C397.656 349.512 397.712 349.469 397.772 349.44C397.833 349.411 397.899 349.396 397.965 349.396C398.031 349.396 398.096 349.411 398.157 349.44C398.218 349.469 398.273 349.512 398.32 349.566C398.367 349.619 398.404 349.683 398.429 349.753C398.455 349.823 398.468 349.898 398.468 349.974C398.468 350.05 398.455 350.125 398.429 350.195C398.404 350.265 398.367 350.329 398.32 350.382C398.2 350.52 386.14 364.757 385.97 391.414C385.8 418.071 391.08 434.861 391.14 435.022C391.185 435.165 391.179 435.323 391.122 435.462C391.066 435.6 390.964 435.706 390.84 435.758C390.785 435.778 390.727 435.785 390.67 435.781Z" fill="white"/>
<path d="M390 434.86L409.14 447.51C411.134 448.866 413.5 449.308 415.764 448.747C418.029 448.187 420.027 446.665 421.36 444.486C422.627 442.219 423.161 439.512 422.87 436.838C421.95 425.407 417.63 422.774 422.92 417.679C428.21 412.585 429.59 412.228 429.29 407.329C428.99 402.43 426.08 400.291 424.7 398.359C423.32 396.427 419.5 392.379 422.1 386.399C424.7 380.419 428.25 374.635 422.87 371.99C419.66 370.403 414.31 372.519 410.79 376.912C407.27 381.305 404.37 384.467 401 385.525C397.63 386.583 390.61 386.756 390.91 393.437C391.21 400.119 392.75 402.407 391.37 405.386C388.77 410.952 377.46 414.114 390 434.86Z" fill="#ABFBDE"/>
<path d="M399.46 441.668C399.335 441.664 399.216 441.608 399.124 441.511C399.032 441.414 398.974 441.282 398.96 441.139C398.96 440.748 396.02 401.28 419.62 375.014C419.717 374.922 419.841 374.875 419.967 374.884C420.093 374.892 420.212 374.955 420.299 375.06C420.386 375.165 420.436 375.304 420.438 375.449C420.44 375.594 420.394 375.734 420.31 375.842C397.05 401.729 399.93 440.645 399.96 441.036C399.971 441.187 399.93 441.336 399.846 441.453C399.761 441.569 399.641 441.642 399.51 441.657L399.46 441.668Z" fill="white"/>
<path d="M403.25 407.698C403.124 407.698 403.003 407.644 402.91 407.546C402.817 407.448 402.76 407.313 402.75 407.169C402.541 404.11 401.792 401.133 400.549 398.418C399.306 395.703 397.595 393.308 395.52 391.379C395.466 391.336 395.42 391.28 395.385 391.216C395.349 391.152 395.325 391.08 395.314 391.006C395.303 390.931 395.305 390.854 395.32 390.78C395.334 390.706 395.362 390.636 395.4 390.574C395.437 390.512 395.485 390.46 395.539 390.419C395.594 390.379 395.656 390.351 395.72 390.338C395.784 390.326 395.85 390.328 395.914 390.344C395.977 390.361 396.037 390.392 396.09 390.436C398.301 392.452 400.123 394.974 401.442 397.843C402.76 400.711 403.547 403.864 403.75 407.1C403.761 407.254 403.719 407.406 403.633 407.525C403.547 407.643 403.424 407.718 403.29 407.732L403.25 407.698Z" fill="white"/>
<path d="M401.62 414.471C401.499 414.472 401.382 414.423 401.29 414.333C401.191 414.231 401.13 414.089 401.121 413.936C401.112 413.784 401.154 413.633 401.24 413.516C401.48 413.194 407.39 405.696 421.24 407.686C421.371 407.706 421.49 407.785 421.571 407.906C421.652 408.026 421.687 408.179 421.67 408.33C421.653 408.482 421.584 408.619 421.48 408.714C421.375 408.809 421.243 408.852 421.11 408.836C407.81 406.915 402.04 414.206 401.98 414.275C401.935 414.334 401.879 414.382 401.817 414.415C401.756 414.449 401.689 414.468 401.62 414.471Z" fill="white"/>
<path d="M327.52 503.447L198.16 417.553C189.03 411.493 181.63 395.232 181.63 381.236V62.6861C181.63 48.6906 189.03 42.2621 198.16 48.3226L327.52 134.216C336.65 140.277 344.05 156.538 344.05 170.533V489.083C344.05 503.067 336.65 509.507 327.52 503.447Z" fill="#455A64"/>
<path d="M342.42 124.2L213.05 38.3061C209.15 35.7186 205.57 35.4196 202.74 37.0066C202.393 37.2062 202.059 37.4329 201.74 37.6851L187.24 47.3796C190.16 45.3671 193.98 45.5166 198.17 48.2996L327.53 134.193C336.66 140.254 344.06 156.515 344.06 170.51V489.06C344.06 496.466 341.99 501.71 338.69 504.194L353 494.615C356.65 492.384 359 486.921 359 479.09V160.54C359 146.521 351.55 130.26 342.42 124.2Z" fill="#37474F"/>
<path d="M344.05 170.511V489.061C344.05 496.467 341.98 501.711 338.68 504.195L353 494.615C356.65 492.384 359 486.922 359 479.09V160.54L344.1 170.488L344.05 170.511Z" fill="#263238"/>
<path d="M358.95 185.253L344.05 195.143V202.871L358.95 192.969V185.253Z" fill="#37474F"/>
<path d="M352.42 236.646C351.09 237.532 350.01 236.589 350.01 234.553V217.936C350.023 216.897 350.248 215.876 350.667 214.956C351.085 214.035 351.686 213.24 352.42 212.634C353.75 211.749 354.83 212.634 354.83 214.727V231.345C354.816 232.384 354.591 233.404 354.173 234.325C353.754 235.246 353.154 236.041 352.42 236.646Z" fill="#37474F"/>
<path d="M350 234.6V217.936C350.013 216.897 350.238 215.877 350.657 214.956C351.075 214.035 351.676 213.24 352.41 212.635C352.629 212.458 352.885 212.35 353.151 212.322C353.418 212.294 353.686 212.346 353.93 212.474L352.12 211.404C351.872 211.267 351.598 211.208 351.324 211.232C351.05 211.256 350.786 211.363 350.56 211.542C349.825 212.148 349.224 212.942 348.803 213.863C348.383 214.783 348.156 215.804 348.14 216.844V233.45C348.102 233.869 348.158 234.293 348.301 234.681C348.445 235.069 348.671 235.409 348.96 235.669L350.85 236.819C350.549 236.57 350.312 236.233 350.162 235.842C350.013 235.452 349.957 235.023 350 234.6Z" fill="#455A64"/>
<path d="M352.42 276.862C351.09 277.748 350.01 276.862 350.01 274.769V258.152C350.024 257.113 350.249 256.093 350.668 255.172C351.086 254.251 351.686 253.456 352.42 252.85C353.75 251.965 354.83 252.85 354.83 254.955V271.561C354.818 272.6 354.593 273.621 354.175 274.542C353.756 275.463 353.155 276.258 352.42 276.862Z" fill="#37474F"/>
<path d="M350 274.769V258.152C350.014 257.113 350.24 256.093 350.658 255.172C351.076 254.252 351.676 253.457 352.41 252.85C352.63 252.677 352.886 252.571 353.152 252.543C353.418 252.515 353.685 252.565 353.93 252.689L352.12 251.608C351.874 251.465 351.598 251.403 351.323 251.427C351.048 251.451 350.784 251.562 350.56 251.746C349.823 252.35 349.221 253.145 348.8 254.065C348.38 254.986 348.154 256.008 348.14 257.048V273.7C348.101 274.12 348.156 274.544 348.3 274.932C348.443 275.32 348.67 275.66 348.96 275.919L350.85 277.069C350.537 276.814 350.291 276.464 350.141 276.058C349.991 275.652 349.942 275.206 350 274.769Z" fill="#455A64"/>
<path d="M323 143.151L195.88 58.7183C195.35 58.3673 194.748 58.182 194.136 58.1807C193.524 58.1794 192.923 58.3621 192.391 58.7109C191.859 59.0596 191.416 59.5621 191.105 60.1686C190.795 60.7751 190.628 61.4645 190.62 62.1683V381.236C190.62 391.885 197.19 404.96 205.21 410.285L329.21 492.659C329.798 493.048 330.465 493.253 331.143 493.252C331.822 493.252 332.488 493.046 333.076 492.656C333.663 492.265 334.151 491.704 334.491 491.029C334.83 490.353 335.009 489.587 335.01 488.807V167.106C335.06 158.32 329.64 147.544 323 143.151Z" fill="#ABFBDE"/>
<path opacity="0.9" d="M323 143.151L195.88 58.7183C195.35 58.3673 194.748 58.182 194.136 58.1807C193.524 58.1794 192.923 58.3621 192.391 58.7109C191.859 59.0596 191.416 59.5621 191.105 60.1686C190.795 60.7751 190.628 61.4645 190.62 62.1683V381.236C190.62 391.885 197.19 404.96 205.21 410.285L329.21 492.659C329.798 493.048 330.465 493.253 331.143 493.252C331.822 493.252 332.488 493.046 333.076 492.656C333.663 492.265 334.151 491.704 334.491 491.029C334.83 490.353 335.009 489.587 335.01 488.807V167.106C335.06 158.32 329.64 147.544 323 143.151Z" fill="white"/>
<path d="M233.9 80.7637L235.87 90.2972L278.01 118.242L285.29 113.78L233.9 80.7637Z" fill="#455A64"/>
<path d="M246.29 89.9752C246.29 91.5622 245.29 92.1947 244.13 91.4127C243.507 90.9372 242.99 90.3005 242.62 89.5535C242.25 88.8065 242.038 87.9702 242 87.1117C242 85.5362 243 84.8922 244.16 85.6857C244.783 86.1587 245.3 86.7933 245.67 87.5385C246.04 88.2836 246.252 89.1183 246.29 89.9752Z" fill="#263238"/>
<path d="M274.68 110.158C274.449 110.156 274.223 110.089 274.02 109.963L252.5 96.1627C252.196 95.9575 251.974 95.6238 251.881 95.2329C251.788 94.842 251.832 94.4248 252.003 94.0705C252.174 93.7162 252.459 93.4529 252.796 93.3367C253.134 93.2205 253.498 93.2607 253.81 93.4487L275.34 107.249C275.602 107.416 275.807 107.679 275.925 107.995C276.043 108.312 276.066 108.664 275.99 108.998C275.915 109.331 275.745 109.626 275.508 109.836C275.271 110.046 274.979 110.159 274.68 110.158Z" fill="#263238"/>
<path d="M217.28 125.119C215.97 124.245 215.02 125.004 215.02 126.925C215.02 127.885 215.226 128.831 215.621 129.677C216.015 130.524 216.585 131.245 217.28 131.778C217.652 132.038 218.08 132.175 218.515 132.175C218.951 132.175 219.378 132.038 219.75 131.778L221.84 136.125C221.105 136.591 220.271 136.814 219.432 136.767C218.594 136.72 217.783 136.406 217.09 135.86C215.392 134.666 213.976 133.008 212.968 131.034C211.96 129.061 211.391 126.831 211.31 124.544C211.31 120.278 213.8 118.794 217.23 121.094C219.167 122.529 220.754 124.508 221.84 126.844L219.75 128.753C219.235 127.303 218.38 126.045 217.28 125.119Z" fill="#ABFBDE"/>
<path d="M233.87 139.529C233.87 143.83 231.34 145.279 227.87 142.979C226.124 141.779 224.662 140.101 223.615 138.095C222.569 136.089 221.969 133.816 221.87 131.479C221.87 127.178 224.4 125.729 227.87 128.029C229.621 129.224 231.086 130.9 232.133 132.908C233.18 134.915 233.777 137.19 233.87 139.529ZM225.58 134.044C225.598 135.031 225.819 135.999 226.226 136.869C226.633 137.739 227.213 138.485 227.92 139.046C229.16 139.874 230.16 139.046 230.16 137.091C230.157 136.126 229.951 135.176 229.562 134.321C229.172 133.467 228.609 132.732 227.92 132.181C226.66 131.341 225.58 132.054 225.58 134.044Z" fill="#ABFBDE"/>
<path d="M237.9 134.964L242.22 145.314V137.862L245.49 140.035V154.537L242.49 152.536L238.19 142.278V149.684L234.9 147.499V132.963L237.9 134.964Z" fill="#ABFBDE"/>
<path d="M256.18 147.096V150.891L253.06 148.821V159.539L249.45 157.135V146.417L246.35 144.359V140.575L256.18 147.096Z" fill="#ABFBDE"/>
<path d="M263.22 164.231L259.12 161.506L258.56 163.185L254.86 160.724L259.47 149.281L263.18 151.742L267.62 169.199L263.77 166.646L263.22 164.231ZM262.33 160.206L261.21 155.25L260.06 158.7L262.33 160.206Z" fill="#ABFBDE"/>
<path d="M273.35 162.345C272.04 161.482 271.09 162.23 271.09 164.162C271.092 165.122 271.299 166.067 271.693 166.913C272.087 167.759 272.656 168.481 273.35 169.015C273.725 169.272 274.153 169.408 274.59 169.408C275.026 169.408 275.455 169.272 275.83 169.015L277.92 173.362C277.181 173.823 276.347 174.042 275.508 173.996C274.668 173.949 273.856 173.638 273.16 173.097C271.461 171.902 270.044 170.242 269.036 168.266C268.028 166.29 267.459 164.059 267.38 161.77C267.38 157.503 269.88 156.02 273.3 158.32C275.234 159.761 276.823 161.738 277.92 164.07L275.83 165.967C275.303 164.524 274.446 163.272 273.35 162.345Z" fill="#ABFBDE"/>
<path d="M287.78 168.083V171.867L284.66 169.797V180.549L281.05 178.146V167.428L277.95 165.369V161.586L287.78 168.083Z" fill="#ABFBDE"/>
<path d="M298.45 185.885C299.34 186.472 300.02 186.012 300.02 184.574V176.214L303.64 178.606V186.966C303.64 190.819 301.64 191.969 298.44 189.864C296.898 188.88 295.602 187.457 294.676 185.731C293.75 184.005 293.224 182.035 293.15 180.009V171.648L296.77 174.052V182.412C296.784 183.105 296.944 183.783 297.237 184.388C297.53 184.993 297.946 185.507 298.45 185.885Z" fill="#ABFBDE"/>
<path d="M309.47 185.931C309.06 185.667 308.8 185.655 308.8 186.092C308.8 187.909 314.45 190.531 314.45 195.787C314.45 199.007 312.32 199.018 309.86 197.385C307.697 195.861 305.834 193.837 304.39 191.44L305.73 188.726C306.829 190.684 308.241 192.385 309.89 193.74C310.42 194.096 310.76 194.096 310.76 193.579C310.76 191.693 305.1 189.186 305.1 184.091C305.1 181.193 306.94 180.641 309.78 182.481C311.609 183.754 313.219 185.403 314.53 187.346L313.22 190.129C312.138 188.544 310.876 187.132 309.47 185.931Z" fill="#ABFBDE"/>
<path d="M199.09 196.581C203.147 190.85 205.19 183.578 204.814 176.201C204.439 168.823 201.672 161.875 197.061 156.728C192.45 151.581 186.329 148.608 179.905 148.396C173.481 148.184 167.222 150.748 162.362 155.583C157.501 160.418 154.393 167.172 153.65 174.512C152.907 181.853 154.584 189.247 158.349 195.236C162.114 201.225 167.694 205.374 173.988 206.864C180.283 208.354 186.834 207.077 192.35 203.285L204.87 209.541L199.09 196.581Z" fill="#ABFBDE"/>
<path opacity="0.4" d="M199.09 196.581C203.147 190.85 205.19 183.578 204.814 176.201C204.439 168.823 201.672 161.875 197.061 156.728C192.45 151.581 186.329 148.608 179.905 148.396C173.481 148.184 167.222 150.748 162.362 155.583C157.501 160.418 154.393 167.172 153.65 174.512C152.907 181.853 154.584 189.247 158.349 195.236C162.114 201.225 167.694 205.374 173.988 206.864C180.283 208.354 186.834 207.077 192.35 203.285L204.87 209.541L199.09 196.581Z" fill="black"/>
<path d="M169.65 176.341C169.65 175.892 169.37 175.639 168.86 175.639C167.677 175.818 166.572 176.417 165.7 177.353L164.28 174.179C165.775 172.886 167.58 172.155 169.45 172.086C171.85 172.086 173.67 173.535 173.67 175.697C173.67 177.238 172.67 178.721 171.39 180.205L169.6 182.24H173.83V185.621H164.74V182.85L168.79 178.031C169.226 177.588 169.527 176.995 169.65 176.341Z" fill="white"/>
<path d="M181.23 172.281L178.47 179.894H179.6V177.33H183.08V179.894H184.4V183.034H183.08V185.621H179.6V183.034H174.65V180.182L177.65 172.281H181.23Z" fill="white"/>
<path d="M195.14 178.986V185.621H191.42V180.216C191.441 180.04 191.43 179.861 191.386 179.691C191.342 179.52 191.267 179.363 191.165 179.229C191.064 179.095 190.939 178.987 190.798 178.914C190.657 178.84 190.504 178.802 190.35 178.802C189.62 178.802 189.16 179.457 189.16 180.469V185.621H185.44V171.522H189.16V176.709C189.451 176.18 189.857 175.747 190.337 175.453C190.817 175.158 191.356 175.013 191.9 175.03C192.346 175.017 192.789 175.112 193.201 175.309C193.612 175.506 193.983 175.801 194.289 176.175C194.595 176.548 194.829 176.992 194.975 177.476C195.122 177.96 195.178 178.475 195.14 178.986Z" fill="white"/>
<path d="M316.44 285.844V428.731C316.442 430.347 316.074 431.935 315.372 433.336C314.671 434.736 313.661 435.9 312.445 436.709C311.228 437.518 309.848 437.944 308.443 437.945C307.037 437.945 305.657 437.52 304.44 436.712L237.52 392.276L225.66 384.41C221.576 381.695 218.183 377.794 215.821 373.098C213.459 368.402 212.21 363.075 212.2 357.65V214.751C212.198 213.135 212.566 211.546 213.267 210.146C213.968 208.745 214.978 207.582 216.195 206.773C217.411 205.964 218.791 205.538 220.197 205.537C221.602 205.537 222.983 205.962 224.2 206.77L303 259.083C307.085 261.795 310.478 265.695 312.838 270.393C315.197 275.09 316.439 280.419 316.44 285.844Z" fill="#ABFBDE"/>
<path opacity="0.5" d="M316.44 285.844V428.731C316.442 430.347 316.074 431.935 315.372 433.336C314.671 434.736 313.661 435.9 312.445 436.709C311.228 437.518 309.848 437.944 308.443 437.945C307.037 437.945 305.657 437.52 304.44 436.712L237.52 392.276L225.66 384.41C221.576 381.695 218.183 377.794 215.821 373.098C213.459 368.402 212.21 363.075 212.2 357.65V214.751C212.198 213.135 212.566 211.546 213.267 210.146C213.968 208.745 214.978 207.582 216.195 206.773C217.411 205.964 218.791 205.538 220.197 205.537C221.602 205.537 222.983 205.962 224.2 206.77L303 259.083C307.085 261.795 310.478 265.695 312.838 270.393C315.197 275.09 316.439 280.419 316.44 285.844Z" fill="white"/>
<path d="M277.89 370.392C277.89 370.392 290.42 394.289 281.37 421.233L237.49 392.276L277.89 370.392Z" fill="#263238"/>
<path d="M297.872 263.024C298.82 254.168 293.346 246.104 285.645 245.013C277.943 243.923 270.931 250.218 269.983 259.075C269.034 267.932 274.509 275.995 282.21 277.086C289.912 278.177 296.924 271.881 297.872 263.024Z" fill="#263238"/>
<path d="M284 215.728C284 215.728 288.31 207.678 289.63 208.265C290.95 208.851 288.77 216.522 288.77 216.522C288.77 216.522 295.29 218.086 294.08 219.972C292.87 221.858 284.9 221.409 284.9 221.409L284 215.728Z" fill="#263238"/>
<path d="M287 236.474C284 262.395 265 262.395 265 262.395L225.2 242.247C225.2 242.247 222.2 239.222 221.28 232.276C220.927 229.431 220.927 226.543 221.28 223.697C221.28 223.697 221.28 223.64 221.28 223.617C222.55 212.715 229.64 200.996 245.08 197.397C248.463 196.611 251.908 196.226 255.36 196.247C257.03 196.24 258.699 196.336 260.36 196.534C272.36 197.891 280.77 204.331 284.78 214.348C285.682 216.609 286.353 218.982 286.78 221.42C287.594 226.388 287.668 231.478 287 236.474Z" fill="#263238"/>
<path d="M191.45 286.614C191.45 286.614 177.32 286.05 171.88 301.886C171.88 301.886 177.88 306.543 185.75 301.886C193.62 297.228 191.45 286.614 191.45 286.614Z" fill="#ABFBDE"/>
<path opacity="0.5" d="M191.45 286.614C191.45 286.614 177.32 286.05 171.88 301.886C171.88 301.886 177.88 306.543 185.75 301.886C193.62 297.228 191.45 286.614 191.45 286.614Z" fill="black"/>
<path d="M191.05 294.239C191.05 294.239 187.05 274.252 184.94 274.011C182.83 273.769 182.42 280.106 182.59 283.682L177.59 271.308C177.431 270.924 177.206 270.581 176.927 270.3C176.649 270.02 176.324 269.808 175.971 269.677C175.619 269.547 175.247 269.501 174.879 269.542C174.511 269.583 174.154 269.711 173.83 269.917C168.83 273.079 160.06 282.693 178.55 306.464L191.05 294.239Z" fill="#945959"/>
<path d="M242.25 280.416L239.25 279.967C236.226 279.506 233.151 279.979 230.339 281.337C227.527 282.695 225.08 284.89 223.25 287.695L205.4 315.019L191.4 286.614C191.4 286.614 189.72 305.934 171.83 301.886L191.04 339.066C192.255 341.42 193.947 343.401 195.972 344.841C197.997 346.281 200.294 347.137 202.668 347.337C205.042 347.537 207.423 347.074 209.608 345.989C211.794 344.903 213.719 343.226 215.22 341.101L231.66 317.86L242.25 280.416Z" fill="#ABFBDE"/>
<path d="M280.35 344.183C276.35 355.844 275.91 358.121 278.35 363.952C280.049 368.258 281.389 372.74 282.35 377.338C282.35 377.338 263.81 401.235 237.42 392.288L225.56 384.422C223.094 382.786 220.872 380.705 218.98 378.258L222.59 347.3C222.772 345.67 222.628 344.015 222.17 342.458L218.38 329.682C216.531 323.442 216.255 316.727 217.586 310.314C218.917 303.901 221.799 298.053 225.9 293.445L238.64 279.128L272.1 284.05L277.1 285.694C280.373 286.783 283.195 289.194 285.047 292.483C286.899 295.772 287.656 299.72 287.18 303.6C285.54 317.17 282.86 336.858 280.35 344.183Z" fill="#ABFBDE"/>
<path opacity="0.5" d="M280.35 344.183C276.35 355.844 275.91 358.121 278.35 363.952C280.049 368.258 281.389 372.74 282.35 377.338C282.35 377.338 263.81 401.235 237.42 392.288L225.56 384.422C223.094 382.786 220.872 380.705 218.98 378.258L222.59 347.3C222.772 345.67 222.628 344.015 222.17 342.458L218.38 329.682C216.531 323.442 216.255 316.727 217.586 310.314C218.917 303.901 221.799 298.053 225.9 293.445L238.64 279.128L272.1 284.05L277.1 285.694C280.373 286.783 283.195 289.194 285.047 292.483C286.899 295.772 287.656 299.72 287.18 303.6C285.54 317.17 282.86 336.858 280.35 344.183Z" fill="black"/>
<path d="M260.17 309.35L253.47 302.783C252.76 302.085 251.905 301.612 250.987 301.41C250.07 301.209 249.123 301.285 248.24 301.633L240.14 304.842L239.05 299.621C238.88 298.808 238.568 298.044 238.134 297.374C237.7 296.704 237.153 296.142 236.525 295.722C235.897 295.301 235.202 295.032 234.481 294.929C233.76 294.827 233.028 294.893 232.33 295.124L228.82 296.274L234.76 283.187C236.699 278.925 239.687 275.413 243.35 273.09L245.68 271.618L264.93 272.768C264.93 272.768 272.1 276.218 272.1 283.981L260.17 309.281" fill="#ABFBDE"/>
<path d="M265.01 282.577L245.71 299.873V244.8H265.01V282.577Z" fill="#945959"/>
<path d="M246.01 278.035L240.14 304.888L264.93 282.578L246.01 278.035Z" fill="#945959"/>
<path d="M245.71 274.044C250.001 272.212 253.924 269.395 257.24 265.766C260.556 262.136 263.196 257.769 265 252.93V244.8H245.7L245.71 274.044Z" fill="#703838"/>
<path d="M249.87 203.986C242.55 203.986 226.99 208.678 225.19 230.712C223.39 252.746 225.13 269.812 235.01 271.468C244.89 273.124 267.85 264.879 270.93 236.359C274.01 207.839 257 203.986 249.87 203.986Z" fill="#945959"/>
<path d="M238.35 240.039V253.023L231.73 250.688L238.35 240.039Z" fill="#703838"/>
<path d="M245.71 244.927C246.98 244.927 248.01 243.742 248.01 242.282C248.01 240.821 246.98 239.637 245.71 239.637C244.439 239.637 243.41 240.821 243.41 242.282C243.41 243.742 244.439 244.927 245.71 244.927Z" fill="#263238"/>
<path d="M232.87 240.442C232.868 240.964 232.731 241.475 232.478 241.908C232.224 242.341 231.864 242.679 231.443 242.877C231.023 243.076 230.561 243.126 230.115 243.023C229.67 242.92 229.261 242.667 228.94 242.296C228.619 241.926 228.401 241.455 228.313 240.942C228.226 240.429 228.272 239.898 228.446 239.415C228.62 238.933 228.915 238.52 229.293 238.23C229.671 237.94 230.116 237.785 230.57 237.785C230.873 237.785 231.173 237.854 231.452 237.988C231.732 238.121 231.986 238.317 232.2 238.564C232.414 238.811 232.583 239.104 232.698 239.426C232.813 239.748 232.871 240.093 232.87 240.442Z" fill="#263238"/>
<path d="M227.76 234.922L232.26 231.851C232.26 231.851 230.54 229.793 228.82 231.023C227.1 232.254 227.76 234.922 227.76 234.922Z" fill="#263238"/>
<path d="M235.24 258.29C237.431 258.474 239.612 257.801 241.43 256.381C241.43 256.381 241.86 260.141 239.12 260.854C236.38 261.567 235.24 258.29 235.24 258.29Z" fill="#703838"/>
<path d="M231.31 211.485C231.31 211.485 234.06 241.902 270.03 242.857C270.03 242.857 280.9 212.623 259.42 202.802C237.94 192.981 231.31 211.485 231.31 211.485Z" fill="#263238"/>
<path d="M280.62 238.302L276.2 235.358C274.52 234.208 272.2 234.369 269.63 236.071C264.53 239.452 260.39 247.698 260.39 254.471C260.39 257.864 261.39 260.221 263.11 261.371L267.45 264.246L267.7 264.407L267.85 264.511C269.49 265.431 271.68 265.212 274.09 263.614C279.19 260.164 283.33 251.987 283.33 245.214C283.3 241.787 282.27 239.418 280.62 238.302Z" fill="#ABFBDE"/>
<path d="M280.585 255.624C284.191 248.441 284.191 240.676 280.585 238.282C276.979 235.887 271.132 239.77 267.525 246.953C263.919 254.137 263.919 261.901 267.525 264.295C271.131 266.69 276.978 262.808 280.585 255.624Z" fill="#ABFBDE"/>
<path opacity="0.5" d="M280.585 255.624C284.191 248.441 284.191 240.676 280.585 238.282C276.979 235.887 271.132 239.77 267.525 246.953C263.919 254.137 263.919 261.901 267.525 264.295C271.131 266.69 276.978 262.808 280.585 255.624Z" fill="black"/>
<path d="M282.39 244.685L279.39 242.673C278.25 241.891 276.66 241.994 274.9 243.156C273.061 244.538 271.531 246.397 270.433 248.585C269.335 250.773 268.7 253.226 268.58 255.748C268.58 258.048 269.29 259.693 270.44 260.452L273.44 262.418C273.493 262.463 273.55 262.502 273.61 262.533L273.71 262.602C274.413 262.909 275.171 263.013 275.917 262.905C276.663 262.796 277.375 262.479 277.99 261.981C279.827 260.601 281.356 258.743 282.454 256.557C283.552 254.372 284.187 251.92 284.31 249.4C284.23 247.066 283.53 245.444 282.39 244.685Z" fill="#ABFBDE"/>
<path d="M284.23 249.377C284.107 251.897 283.472 254.348 282.374 256.534C281.276 258.719 279.747 260.577 277.91 261.958C274.41 264.258 271.58 262.395 271.58 257.76C271.698 255.238 272.333 252.784 273.433 250.597C274.534 248.411 276.067 246.555 277.91 245.179C281.4 242.856 284.23 244.731 284.23 249.377Z" fill="#ABFBDE"/>
<path opacity="0.3" d="M284.23 249.377C284.107 251.897 283.472 254.348 282.374 256.534C281.276 258.719 279.747 260.577 277.91 261.958C274.41 264.258 271.58 262.395 271.58 257.76C271.698 255.238 272.333 252.784 273.433 250.597C274.534 248.411 276.067 246.555 277.91 245.179C281.4 242.856 284.23 244.731 284.23 249.377Z" fill="black"/>
<path d="M266.89 198.053C264.023 195.506 260.512 194.105 256.89 194.062H256C252.332 194.017 248.67 194.402 245.07 195.212C245.73 195.212 246.39 195.212 247.07 195.212H245.07V197.351H246.93C253.34 197.602 259.414 200.709 263.869 206.016C268.323 211.324 270.809 218.415 270.8 225.791V234.841C270.8 235.199 270.865 235.553 270.991 235.88C271.117 236.207 271.302 236.5 271.533 236.739C271.764 236.979 272.036 237.16 272.332 237.271C272.628 237.382 272.94 237.42 273.25 237.383H273.48L275.48 236.67C275.347 236.718 275.209 236.749 275.07 236.762C275.666 236.669 276.212 236.327 276.603 235.801C276.994 235.275 277.203 234.601 277.19 233.91V225.515C277.17 210.323 271.46 202.158 266.89 198.053Z" fill="#ABFBDE"/>
<path d="M254.3 270.836C253.475 270.836 252.66 270.632 251.91 270.238L245.66 266.915C245.562 266.874 245.472 266.811 245.397 266.729C245.322 266.647 245.262 266.548 245.221 266.438C245.181 266.328 245.161 266.21 245.162 266.09C245.164 265.971 245.187 265.853 245.23 265.745C245.273 265.636 245.335 265.539 245.412 265.459C245.49 265.38 245.581 265.32 245.679 265.282C245.778 265.245 245.882 265.232 245.986 265.244C246.089 265.256 246.189 265.292 246.28 265.351L252.53 268.674C253.327 269.1 254.22 269.23 255.084 269.044C255.948 268.859 256.74 268.367 257.35 267.639L263.35 260.509C263.49 260.348 263.681 260.257 263.88 260.257C264.078 260.257 264.269 260.348 264.41 260.509C264.548 260.672 264.625 260.891 264.625 261.119C264.625 261.346 264.548 261.565 264.41 261.728L258.41 268.858C257.876 269.489 257.236 269.989 256.53 270.329C255.824 270.669 255.065 270.841 254.3 270.836Z" fill="#ABFBDE"/>
<path opacity="0.5" d="M254.3 270.836C253.475 270.836 252.66 270.632 251.91 270.238L245.66 266.915C245.562 266.874 245.472 266.811 245.397 266.729C245.322 266.647 245.262 266.548 245.221 266.438C245.181 266.328 245.161 266.21 245.162 266.09C245.164 265.971 245.187 265.853 245.23 265.745C245.273 265.636 245.335 265.539 245.412 265.459C245.49 265.38 245.581 265.32 245.679 265.282C245.778 265.245 245.882 265.232 245.986 265.244C246.089 265.256 246.189 265.292 246.28 265.351L252.53 268.674C253.327 269.1 254.22 269.23 255.084 269.044C255.948 268.859 256.74 268.367 257.35 267.639L263.35 260.509C263.49 260.348 263.681 260.257 263.88 260.257C264.078 260.257 264.269 260.348 264.41 260.509C264.548 260.672 264.625 260.891 264.625 261.119C264.625 261.346 264.548 261.565 264.41 261.728L258.41 268.858C257.876 269.489 257.236 269.989 256.53 270.329C255.824 270.669 255.065 270.841 254.3 270.836Z" fill="black"/>
<path d="M247.3 264.5C247.3 265.164 247.129 265.813 246.808 266.365C246.487 266.917 246.031 267.348 245.497 267.602C244.964 267.856 244.377 267.923 243.81 267.793C243.244 267.664 242.724 267.344 242.315 266.874C241.907 266.404 241.629 265.806 241.516 265.155C241.403 264.503 241.461 263.828 241.682 263.215C241.903 262.601 242.278 262.077 242.758 261.708C243.238 261.339 243.802 261.142 244.38 261.142C245.154 261.142 245.897 261.495 246.445 262.125C246.992 262.755 247.3 263.609 247.3 264.5Z" fill="#ABFBDE"/>
<path opacity="0.5" d="M247.3 264.5C247.3 265.164 247.129 265.813 246.808 266.365C246.487 266.917 246.031 267.348 245.497 267.602C244.964 267.856 244.377 267.923 243.81 267.793C243.244 267.664 242.724 267.344 242.315 266.874C241.907 266.404 241.629 265.806 241.516 265.155C241.403 264.503 241.461 263.828 241.682 263.215C241.903 262.601 242.278 262.077 242.758 261.708C243.238 261.339 243.802 261.142 244.38 261.142C245.154 261.142 245.897 261.495 246.445 262.125C246.992 262.755 247.3 263.609 247.3 264.5Z" fill="black"/>
<path d="M277.17 225.515V233.91C277.182 234.601 276.973 235.274 276.582 235.8C276.191 236.326 275.646 236.669 275.05 236.762C274.72 236.802 274.387 236.762 274.072 236.645C273.757 236.527 273.467 236.335 273.22 236.08C272.974 235.825 272.777 235.513 272.643 235.165C272.508 234.817 272.439 234.44 272.44 234.059V225.515C272.445 221.437 271.733 217.4 270.347 213.646C268.961 209.893 266.928 206.501 264.372 203.674C261.816 200.848 258.789 198.645 255.474 197.198C252.158 195.752 248.623 195.092 245.08 195.258C248.679 194.448 252.342 194.063 256.01 194.108H256.88C260.502 194.151 264.013 195.552 266.88 198.099C271.46 202.158 277.17 210.323 277.17 225.515Z" fill="#ABFBDE"/>
<path opacity="0.5" d="M277.17 225.515V233.91C277.182 234.601 276.973 235.274 276.582 235.8C276.191 236.326 275.646 236.669 275.05 236.762C274.72 236.802 274.387 236.762 274.072 236.645C273.757 236.527 273.467 236.335 273.22 236.08C272.974 235.825 272.777 235.513 272.643 235.165C272.508 234.817 272.439 234.44 272.44 234.059V225.515C272.445 221.437 271.733 217.4 270.347 213.646C268.961 209.893 266.928 206.501 264.372 203.674C261.816 200.848 258.789 198.645 255.474 197.198C252.158 195.752 248.623 195.092 245.08 195.258C248.679 194.448 252.342 194.063 256.01 194.108H256.88C260.502 194.151 264.013 195.552 266.88 198.099C271.46 202.158 277.17 210.323 277.17 225.515Z" fill="black"/>
<path d="M265.93 383.72C265.93 383.72 261.09 399.05 278.39 405.95C278.39 405.95 284.04 396.405 278.39 388.596C272.74 380.788 265.93 383.72 265.93 383.72Z" fill="#ABFBDE"/>
<path opacity="0.7" d="M265.93 383.72C265.93 383.72 261.09 399.05 278.39 405.95C278.39 405.95 284.04 396.405 278.39 388.596C272.74 380.788 265.93 383.72 265.93 383.72Z" fill="black"/>
<path d="M272 384.422C272 384.422 255.1 391.54 255.19 394.3C255.28 397.06 262.37 395.174 262.37 395.174L259.78 397.129C257.052 399.176 254.94 402.139 253.73 405.616C253.466 406.383 253.457 407.235 253.704 408.009C253.951 408.783 254.437 409.425 255.07 409.814L261.49 413.724C261.852 413.945 262.25 414.08 262.658 414.122C263.067 414.163 263.479 414.11 263.87 413.965C264.26 413.821 264.622 413.587 264.933 413.279C265.244 412.971 265.498 412.594 265.68 412.171C266.038 411.358 266.532 410.635 267.135 410.043C267.737 409.45 268.435 409.001 269.19 408.721C272.68 407.387 279.19 403.546 281.8 393.035L272 384.422Z" fill="#945959"/>
<path d="M277.07 285.671C277.07 285.671 268.07 291.421 272.85 308.878C277.63 326.335 286.6 353.417 286.6 353.417L265.93 383.72C268.138 384.026 270.265 384.865 272.173 386.18C274.08 387.496 275.725 389.26 277 391.356C278.221 393.487 278.984 395.922 279.225 398.46C279.467 400.997 279.181 403.564 278.39 405.949L304.05 367.999C306.423 364.492 307.998 360.36 308.634 355.977C309.269 351.594 308.945 347.098 307.69 342.895L296.69 305.957C295.345 301.445 293.111 297.352 290.161 293.998C287.212 290.644 283.628 288.121 279.69 286.625L277.07 285.671Z" fill="#ABFBDE"/>
<path d="M125.15 182.551L85.3798 156.101C84.9221 155.736 84.3926 155.509 83.8391 155.438C83.2856 155.368 82.7256 155.458 82.2098 155.699C82.1011 155.756 81.9973 155.826 81.8998 155.906L73.2498 161.736H73.3098C72.2198 162.449 71.5298 164.105 71.5298 166.474V217.35C71.5298 221.651 73.7998 226.654 76.6098 228.517L116.38 254.967C116.884 255.386 117.485 255.627 118.107 255.657C118.729 255.688 119.346 255.508 119.88 255.139C119.853 255.152 119.829 255.171 119.81 255.197L128.4 249.447C129.52 248.757 130.23 247.078 130.23 244.674V193.718C130.23 189.417 128 184.414 125.15 182.551Z" fill="#ABFBDE"/>
<path d="M128.81 187.37C128.005 185.402 126.737 183.733 125.15 182.551L85.38 156.101C84.9223 155.736 84.3928 155.509 83.8393 155.438C83.2858 155.368 82.7258 155.458 82.21 155.699C82.1013 155.756 81.9975 155.826 81.9 155.906L73.25 161.736C73.7791 161.425 74.3724 161.287 74.965 161.338C75.5577 161.389 76.1267 161.626 76.61 162.024L116.38 188.474C118.021 189.708 119.322 191.455 120.13 193.511L128.81 187.37Z" fill="#ABFBDE"/>
<path d="M121.46 250.494C121.46 252.794 120.82 254.392 119.81 255.094L128.4 249.344C129.52 248.654 130.23 246.975 130.23 244.571V193.718C130.187 191.505 129.701 189.332 128.81 187.37L120.13 193.511C120.963 195.415 121.417 197.509 121.46 199.641V250.494Z" fill="#ABFBDE"/>
<path opacity="0.3" d="M128.81 187.37C128.005 185.402 126.737 183.733 125.15 182.551L85.38 156.101C84.9223 155.736 84.3928 155.509 83.8393 155.438C83.2858 155.368 82.7258 155.458 82.21 155.699C82.1013 155.756 81.9975 155.826 81.9 155.906L73.25 161.736C73.7791 161.425 74.3724 161.287 74.965 161.338C75.5577 161.389 76.1267 161.626 76.61 162.024L116.38 188.474C118.021 189.708 119.322 191.455 120.13 193.511L128.81 187.37Z" fill="black"/>
<path opacity="0.6" d="M121.46 250.494C121.46 252.794 120.82 254.392 119.81 255.094L128.4 249.344C129.52 248.654 130.23 246.975 130.23 244.571V193.718C130.187 191.505 129.701 189.332 128.81 187.37L120.13 193.511C120.963 195.415 121.417 197.509 121.46 199.641V250.494Z" fill="black"/>
<path d="M109.8 214.211C109.8 220.801 107.53 223.043 104.13 220.778C103.192 220.164 102.372 219.338 101.719 218.349C101.066 217.361 100.593 216.231 100.33 215.028C99.3298 216.442 97.7798 216.534 95.5998 215.085C92.0198 212.705 89.1998 207.035 89.1998 201.527C89.1998 196.018 91.9898 194.121 95.5998 196.513C97.4316 197.754 98.9113 199.58 99.8598 201.768V199.595L103.63 202.102V214.016C103.574 214.643 103.668 215.275 103.902 215.845C104.137 216.415 104.503 216.9 104.96 217.247C106.23 218.098 107.01 216.661 107.01 212.394C107.01 204.931 102.85 197.019 96.6998 192.936C90.5498 188.854 86.3998 191.694 86.3998 199.376C86.4804 203.452 87.4571 207.439 89.2389 210.964C91.0207 214.489 93.5496 217.438 96.5898 219.536C98.2405 220.705 100.115 221.392 102.05 221.537L102.94 225.504C100.687 225.295 98.5101 224.471 96.5898 223.101C88.5898 217.776 83.2998 207.058 83.2998 197.352C83.2998 187.646 88.6398 184.127 96.6998 189.486C104.49 194.65 109.8 204.988 109.8 214.211ZM99.9198 208.68C99.9393 207.221 99.6298 205.782 99.0217 204.502C98.4136 203.223 97.5275 202.146 96.4498 201.377C94.4498 200.032 93.0198 200.975 93.0198 204.103C92.9941 205.563 93.2962 207.007 93.897 208.294C94.4979 209.581 95.3771 210.669 96.4498 211.451C98.4498 212.751 99.9198 211.911 99.9198 208.68Z" fill="#ABFBDE"/>
<g opacity="0.9">
<path d="M109.8 214.211C109.8 220.801 107.53 223.043 104.13 220.778C103.192 220.164 102.372 219.338 101.719 218.349C101.066 217.361 100.593 216.231 100.33 215.028C99.3298 216.442 97.7798 216.534 95.5998 215.085C92.0198 212.705 89.1998 207.035 89.1998 201.527C89.1998 196.018 91.9898 194.121 95.5998 196.513C97.4316 197.754 98.9113 199.58 99.8598 201.768V199.595L103.63 202.102V214.016C103.574 214.643 103.668 215.275 103.902 215.845C104.137 216.415 104.503 216.9 104.96 217.247C106.23 218.098 107.01 216.661 107.01 212.394C107.01 204.931 102.85 197.019 96.6998 192.936C90.5498 188.854 86.3998 191.694 86.3998 199.376C86.4804 203.452 87.4571 207.439 89.2389 210.964C91.0207 214.489 93.5496 217.438 96.5898 219.536C98.2405 220.705 100.115 221.392 102.05 221.537L102.94 225.504C100.687 225.295 98.5101 224.471 96.5898 223.101C88.5898 217.776 83.2998 207.058 83.2998 197.352C83.2998 187.646 88.6398 184.127 96.6998 189.486C104.49 194.65 109.8 204.988 109.8 214.211ZM99.9198 208.68C99.9393 207.221 99.6298 205.782 99.0217 204.502C98.4136 203.223 97.5275 202.146 96.4498 201.377C94.4498 200.032 93.0198 200.975 93.0198 204.103C92.9941 205.563 93.2962 207.007 93.897 208.294C94.4979 209.581 95.3771 210.669 96.4498 211.451C98.4498 212.751 99.9198 211.911 99.9198 208.68Z" fill="white"/>
</g>
<path d="M125.15 273.149L85.3798 246.699C84.9227 246.332 84.3926 246.104 83.8384 246.035C83.2843 245.967 82.7241 246.061 82.2098 246.308C82.1011 246.365 81.9973 246.435 81.8998 246.515L73.2498 252.345H73.3098C72.2198 253.058 71.5298 254.714 71.5298 257.072V307.925C71.5298 312.237 73.7998 317.228 76.6098 319.091L116.38 345.541C116.883 345.964 117.484 346.206 118.107 346.236C118.73 346.267 119.347 346.085 119.88 345.714L119.81 345.783L128.4 339.975C129.52 339.297 130.23 337.675 130.23 335.203V284.304C130.23 280.003 128 275.012 125.15 273.149Z" fill="#ABFBDE"/>
<path d="M128.81 277.967C128.008 275.997 126.74 274.327 125.15 273.149L85.38 246.699C84.923 246.332 84.3928 246.104 83.8386 246.035C83.2845 245.967 82.7243 246.061 82.21 246.308C82.1013 246.365 81.9975 246.435 81.9 246.515L73.25 252.345C73.7779 252.031 74.3709 251.891 74.9638 251.94C75.5566 251.988 76.1262 252.224 76.61 252.621L116.38 279.071C118.024 280.307 119.326 282.059 120.13 284.12L128.81 277.967Z" fill="#ABFBDE"/>
<path d="M121.46 341.079C121.46 343.379 120.82 344.977 119.81 345.736L128.4 339.929C129.52 339.25 130.23 337.629 130.23 335.156V284.303C130.187 282.094 129.701 279.925 128.81 277.967L120.13 284.108C120.963 286.008 121.417 288.098 121.46 290.226V341.079Z" fill="#ABFBDE"/>
<path opacity="0.3" d="M128.81 277.967C128.008 275.997 126.74 274.327 125.15 273.149L85.38 246.699C84.923 246.332 84.3928 246.104 83.8386 246.035C83.2845 245.967 82.7243 246.061 82.21 246.308C82.1013 246.365 81.9975 246.435 81.9 246.515L73.25 252.345C73.7779 252.031 74.3709 251.891 74.9638 251.94C75.5566 251.988 76.1262 252.224 76.61 252.621L116.38 279.071C118.024 280.307 119.326 282.059 120.13 284.12L128.81 277.967Z" fill="black"/>
<path opacity="0.6" d="M121.46 341.079C121.46 343.379 120.82 344.977 119.81 345.736L128.4 339.929C129.52 339.25 130.23 337.629 130.23 335.156V284.303C130.187 282.094 129.701 279.925 128.81 277.967L120.13 284.108C120.963 286.008 121.417 288.098 121.46 290.226V341.079Z" fill="black"/>
<path d="M92.05 295.884L82.46 277.967V302.243L92.05 295.884Z" fill="#ABFBDE"/>
<path d="M100.96 301.047L110.53 320.102V295.86L100.96 301.047Z" fill="#ABFBDE"/>
<path d="M83.9097 277.15L93.7597 295.55C93.8014 295.591 93.8383 295.637 93.8697 295.688C93.8783 295.734 93.8783 295.781 93.8697 295.826L96.7997 301.3L99.2797 299.955C99.3183 299.907 99.362 299.864 99.4097 299.828C99.5074 299.763 99.6168 299.723 99.7297 299.713L109.73 294.32L83.9097 277.15Z" fill="#ABFBDE"/>
<path d="M99.5098 301.83L96.8298 303.279C96.7265 303.334 96.6137 303.362 96.4998 303.359C96.3617 303.361 96.2257 303.322 96.1048 303.245C95.9838 303.169 95.8822 303.057 95.8098 302.922L92.8798 297.448L83.2598 303.842L109.15 321.023L99.5098 301.83Z" fill="#ABFBDE"/>
<g opacity="0.9">
<path d="M92.05 295.884L82.46 277.967V302.243L92.05 295.884Z" fill="white"/>
<path d="M100.96 301.048L110.53 320.103V295.861L100.96 301.048Z" fill="white"/>
<path d="M83.9102 277.15L93.7602 295.55C93.8019 295.591 93.8388 295.637 93.8702 295.688C93.8788 295.734 93.8788 295.781 93.8702 295.826L96.8002 301.3L99.2802 299.955C99.3188 299.907 99.3624 299.864 99.4102 299.828C99.5079 299.763 99.6173 299.723 99.7302 299.713L109.73 294.32L83.9102 277.15Z" fill="white"/>
<path d="M99.5098 301.83L96.8298 303.279C96.7265 303.334 96.6137 303.362 96.4998 303.359C96.3617 303.361 96.2257 303.322 96.1048 303.245C95.9838 303.169 95.8822 303.057 95.8098 302.922L92.8798 297.448L83.2598 303.842L109.15 321.023L99.5098 301.83Z" fill="white"/>
</g>
<path d="M125.15 92.0003L85.3798 65.5503C84.9227 65.1835 84.3926 64.9553 83.8384 64.8869C83.2843 64.8186 82.7241 64.9123 82.2098 65.1593C82.1011 65.217 81.9973 65.2863 81.8998 65.3663L73.2498 71.1968H73.3098C72.2198 71.8983 71.5298 73.5658 71.5298 75.9233V126.776C71.5298 131.077 73.7998 136.08 76.6098 137.943L116.38 164.393C116.883 164.815 117.484 165.057 118.107 165.088C118.73 165.119 119.347 164.937 119.88 164.565L119.81 164.623L128.4 158.873C129.52 158.194 130.23 156.573 130.23 154.1V103.121C130.23 98.8198 128 93.8173 125.15 92.0003Z" fill="#ABFBDE"/>
<path d="M128.81 96.7843C128.008 94.8112 126.74 93.1374 125.15 91.9543L85.38 65.5503C84.923 65.1835 84.3928 64.9553 83.8386 64.8869C83.2845 64.8186 82.7243 64.9123 82.21 65.1593C82.1013 65.217 81.9975 65.2863 81.9 65.3663L73.25 71.1968C73.7779 70.8828 74.3709 70.7425 74.9638 70.7912C75.5566 70.8399 76.1262 71.0757 76.61 71.4728L116.38 97.9228C118.024 99.1586 119.326 100.911 120.13 102.971L128.81 96.7843Z" fill="#ABFBDE"/>
<path d="M121.46 159.85C121.46 162.15 120.82 163.749 119.81 164.45L128.4 158.7C129.52 158.022 130.23 156.4 130.23 153.928V103.121C130.187 100.911 129.701 98.7423 128.81 96.7842L120.13 102.925C120.963 104.825 121.417 106.916 121.46 109.043V159.85Z" fill="#ABFBDE"/>
<path opacity="0.3" d="M128.81 96.7843C128.008 94.8112 126.74 93.1374 125.15 91.9543L85.38 65.5503C84.923 65.1835 84.3928 64.9553 83.8386 64.8869C83.2845 64.8186 82.7243 64.9123 82.21 65.1593C82.1013 65.217 81.9975 65.2863 81.9 65.3663L73.25 71.1968C73.7779 70.8828 74.3709 70.7425 74.9638 70.7912C75.5566 70.8399 76.1262 71.0757 76.61 71.4728L116.38 97.9228C118.024 99.1586 119.326 100.911 120.13 102.971L128.81 96.7843Z" fill="black"/>
<path opacity="0.6" d="M121.46 159.85C121.46 162.15 120.82 163.749 119.81 164.45L128.4 158.7C129.52 158.022 130.23 156.4 130.23 153.928V103.121C130.187 100.911 129.701 98.7423 128.81 96.7842L120.13 102.925C120.963 104.825 121.417 106.916 121.46 109.043V159.85Z" fill="black"/>
<path d="M108.45 138C106.92 135.102 105.38 132.25 103.85 129.329C103.607 128.776 103.268 128.286 102.853 127.89C102.439 127.494 101.958 127.201 101.44 127.029C100.7 126.856 99.9599 126.661 99.1999 126.408C98.9293 126.278 98.7016 126.053 98.5499 125.764C96.0463 120.836 94.056 115.587 92.6199 110.124C92.5894 110.007 92.5807 109.884 92.5945 109.763C92.6083 109.642 92.6442 109.526 92.6999 109.422C93.1699 108.882 93.6999 108.387 94.1799 107.904C94.6599 107.421 94.9099 106.306 94.5599 104.857C93.8199 101.786 93.1099 98.716 92.3699 95.657C92.2267 94.7878 91.887 93.9773 91.385 93.3071C90.8829 92.6369 90.2362 92.1305 89.5099 91.839C87.8973 91.3234 86.1853 91.3957 84.6099 92.046C83.9999 92.3105 83.6799 92.943 83.6699 94.0355C83.9299 96.14 84.0999 98.2215 84.4499 100.36C86.9166 115.786 92.8499 129.969 102.25 142.91C102.495 143.34 102.825 143.696 103.212 143.952C103.6 144.208 104.034 144.355 104.48 144.382C106.036 144.34 107.531 143.677 108.71 142.508C109.6 141.588 109.51 139.955 108.45 138Z" fill="#ABFBDE"/>
<path d="M108.33 122.326C108.121 119.018 107.328 115.794 106 112.85C105.008 110.55 103.746 108.418 102.25 106.513C101.86 106.007 101.53 105.846 101.33 106.226C101.13 106.605 101.33 107.146 101.71 107.64L102.1 108.158C104.864 111.827 106.606 116.366 107.1 121.187C107.095 121.539 107.125 121.89 107.19 122.234C107.315 122.629 107.517 122.987 107.78 123.28C107.99 123.453 108.23 123.28 108.4 123.28C108.34 122.809 108.35 122.567 108.33 122.326Z" fill="#ABFBDE"/>
<path d="M99.2696 112.884C100.525 114.473 101.288 116.494 101.44 118.634C101.505 118.959 101.61 119.273 101.75 119.566C102.36 120.141 102.66 119.945 102.66 119.221C102.446 116.477 101.459 113.889 99.8496 111.849C99.4696 111.401 99.1596 111.263 98.9796 111.642C98.9148 111.859 98.9078 112.093 98.9595 112.314C99.0112 112.535 99.1191 112.734 99.2696 112.884Z" fill="#ABFBDE"/>
<g opacity="0.9">
<path d="M108.45 138C106.92 135.102 105.38 132.25 103.85 129.329C103.607 128.776 103.268 128.286 102.853 127.89C102.439 127.494 101.958 127.201 101.44 127.029C100.7 126.856 99.9599 126.661 99.1999 126.408C98.9293 126.278 98.7016 126.053 98.5499 125.764C96.0463 120.836 94.056 115.587 92.6199 110.124C92.5894 110.007 92.5807 109.884 92.5945 109.763C92.6083 109.642 92.6442 109.526 92.6999 109.422C93.1699 108.882 93.6999 108.387 94.1799 107.904C94.6599 107.421 94.9099 106.306 94.5599 104.857C93.8199 101.786 93.1099 98.716 92.3699 95.657C92.2267 94.7878 91.887 93.9773 91.385 93.3071C90.8829 92.6369 90.2362 92.1305 89.5099 91.839C87.8973 91.3234 86.1853 91.3957 84.6099 92.046C83.9999 92.3105 83.6799 92.943 83.6699 94.0355C83.9299 96.14 84.0999 98.2215 84.4499 100.36C86.9166 115.786 92.8499 129.969 102.25 142.91C102.495 143.34 102.825 143.696 103.212 143.952C103.6 144.208 104.034 144.355 104.48 144.382C106.036 144.34 107.531 143.677 108.71 142.508C109.6 141.588 109.51 139.955 108.45 138Z" fill="white"/>
<path d="M108.33 122.326C108.121 119.018 107.328 115.794 106 112.85C105.008 110.55 103.746 108.418 102.25 106.513C101.86 106.007 101.53 105.846 101.33 106.226C101.13 106.605 101.33 107.146 101.71 107.64L102.1 108.158C104.864 111.827 106.606 116.366 107.1 121.187C107.095 121.539 107.125 121.89 107.19 122.234C107.315 122.629 107.517 122.987 107.78 123.28C107.99 123.453 108.23 123.28 108.4 123.28C108.34 122.809 108.35 122.567 108.33 122.326Z" fill="white"/>
<path d="M99.2701 112.884C100.526 114.473 101.289 116.494 101.44 118.634C101.506 118.959 101.61 119.273 101.75 119.566C102.36 120.141 102.66 119.945 102.66 119.221C102.446 116.477 101.46 113.889 99.8501 111.849C99.4701 111.401 99.1601 111.263 98.9801 111.642C98.9153 111.859 98.9083 112.093 98.96 112.314C99.0117 112.535 99.1196 112.734 99.2701 112.884Z" fill="white"/>
</g>
<path d="M329.2 61.5025L338.57 67.632V63.814C338.57 63.5495 338.57 63.2735 338.57 63.009C338.57 62.7445 338.57 62.4915 338.57 62.2385V62.1005C338.91 57.052 342.24 55.1085 346.3 57.811C348.138 59.1111 349.713 60.8481 350.92 62.9055C351.83 56.0055 356.7 53.5675 362.59 57.466C369.13 61.813 374.43 72.416 374.43 81.064V89.229C374.421 89.8821 374.561 90.5266 374.836 91.0978C375.112 91.669 375.513 92.1469 376 92.4835L381.52 96.198C382.711 97.0102 383.699 98.1643 384.386 99.5471C385.073 100.93 385.436 102.494 385.44 104.087C385.44 104.748 385.289 105.397 385.001 105.969C384.714 106.541 384.301 107.016 383.803 107.346C383.305 107.676 382.74 107.849 382.166 107.849C381.591 107.848 381.027 107.673 380.53 107.341L329.34 73.313C327.982 72.406 326.854 71.1062 326.068 69.5427C325.282 67.9792 324.866 66.2064 324.86 64.4005C324.859 63.8159 324.993 63.2415 325.246 62.7347C325.499 62.228 325.864 61.8067 326.304 61.5132C326.743 61.2197 327.242 61.0642 327.751 61.0623C328.259 61.0604 328.759 61.2122 329.2 61.5025Z" fill="#E6E6E6"/>
<path d="M400.63 59.9045L407.44 64.401V61.595C407.44 61.3995 407.44 61.204 407.44 61.0085C407.44 60.813 407.44 60.629 407.44 60.445V60.376C407.69 56.7075 410.11 55.293 413.06 57.2595C414.396 58.2008 415.541 59.4594 416.42 60.951C417.09 55.96 420.63 54.1545 424.91 56.995C429.67 60.1575 433.52 67.8395 433.52 74.153V80.0985C433.524 80.5646 433.632 81.0216 433.836 81.4248C434.039 81.8279 434.33 82.1635 434.68 82.3985L438.68 85.101C439.55 85.6896 440.271 86.5302 440.772 87.5391C441.272 88.5479 441.533 89.6898 441.53 90.851C441.529 91.3266 441.421 91.7938 441.215 92.2065C441.01 92.6193 440.715 92.9634 440.358 93.2048C440.002 93.4462 439.597 93.5768 439.184 93.5834C438.77 93.5901 438.362 93.4728 438 93.243L400.73 68.495C399.742 67.838 398.922 66.894 398.352 65.7577C397.782 64.6213 397.481 63.3326 397.48 62.0205C397.479 61.5958 397.575 61.1784 397.759 60.8099C397.942 60.4414 398.207 60.1347 398.526 59.9205C398.845 59.7063 399.207 59.5921 399.576 59.5893C399.945 59.5865 400.309 59.6952 400.63 59.9045Z" fill="#E6E6E6"/>
</svg>
