<svg width="268" height="123" viewBox="0 0 268 123" fill="none" xmlns="http://www.w3.org/2000/svg">
<path d="M39.2168 112.75C36.3355 112.75 33.8501 111.896 31.7607 110.188C29.6713 108.479 28.4854 106.301 28.2028 103.653L18.583 22.9344C18.1183 19.5177 19.1407 16.5503 21.6502 14.0322C24.1597 11.5142 27.2734 10.2534 30.9912 10.25H103.488C107.206 10.25 110.319 11.5107 112.829 14.0322C115.339 16.5538 116.361 19.5211 115.896 22.9344L106.276 103.653C105.998 106.301 104.812 108.479 102.718 110.188C100.625 111.896 98.14 112.75 95.2625 112.75H39.2168ZM36.9861 82H97.6326L104.882 20.5H29.597L36.9861 82Z" fill="#BDF3FF" fill-opacity="0.75"/>
<path d="M39.2168 112.75C36.3355 112.75 33.8501 111.896 31.7607 110.188C29.6713 108.479 28.4854 106.301 28.2028 103.653L18.583 22.9344C18.1183 19.5177 19.1407 16.5503 21.6502 14.0322C24.1597 11.5142 27.2734 10.2534 30.9912 10.25H103.488C107.206 10.25 110.319 11.5107 112.829 14.0322C115.339 16.5538 116.361 19.5211 115.896 22.9344L106.276 103.653C105.998 106.301 104.812 108.479 102.718 110.188C100.625 111.896 98.14 112.75 95.2625 112.75H39.2168ZM36.9861 82H97.6326L104.882 20.5H29.597L36.9861 82Z" fill="#ACE6FF" fill-opacity="0.2"/>
<rect width="133.84" height="123" transform="translate(134.16)" fill="white"/>
<path d="M173.057 112.75C170.176 112.75 167.69 111.896 165.601 110.188C163.512 108.479 162.326 106.301 162.043 103.653L152.423 22.9344C151.959 19.5177 152.981 16.5503 155.491 14.0322C158 11.5142 161.114 10.2534 164.831 10.25H237.328C241.046 10.25 244.16 11.5107 246.669 14.0322C249.179 16.5538 250.201 19.5211 249.737 22.9344L240.117 103.653C239.838 106.301 238.652 108.479 236.559 110.188C234.466 111.896 231.98 112.75 229.103 112.75H173.057ZM170.826 82H231.473L238.723 20.5H163.437L170.826 82Z" fill="#29DA9A" fill-opacity="0.54"/>
</svg>
