<svg width="100" height="67" viewBox="0 0 100 67" fill="none" xmlns="http://www.w3.org/2000/svg">
<mask id="path-1-outside-1_197_77" maskUnits="userSpaceOnUse" x="-2" y="8" width="96" height="51" fill="black">
<rect fill="white" x="-2" y="8" width="96" height="51"/>
<path d="M17.4 14.4C19.24 14.4 21.0267 14.52 22.76 14.76C24.52 15 25.9067 15.2667 26.92 15.56L26.52 21.8H23.6L22.16 18.44C21.9467 18.1467 21.3733 17.8667 20.44 17.6C19.5067 17.3333 18.28 17.2 16.76 17.2C14.92 17.2 13.2933 17.72 11.88 18.76C10.4667 19.7733 9.37333 21.1867 8.6 23C7.85333 24.8133 7.48 26.88 7.48 29.2C7.48 31.6533 7.78667 33.9067 8.4 35.96C9.04 38.0133 10.0267 39.68 11.36 40.96C12.6933 42.2133 14.36 42.84 16.36 42.84C17.56 42.84 18.68 42.6533 19.72 42.28C20.7867 41.9067 21.52 41.3333 21.92 40.56V34.32L17.64 33.84V31.16H29.16V33.84L27.12 34.28V43.64C26.6667 43.6133 26.1333 43.6667 25.52 43.8C24.9067 43.9067 23.96 44.1067 22.68 44.4C20.9733 44.8 19.5733 45.0933 18.48 45.28C17.4133 45.4667 16.3333 45.56 15.24 45.56C12.5467 45.56 10.1467 44.92 8.04 43.64C5.96 42.3333 4.34667 40.5467 3.2 38.28C2.05333 36.0133 1.48 33.4667 1.48 30.64C1.48 27.3867 2.16 24.5333 3.52 22.08C4.90667 19.6267 6.81333 17.7333 9.24 16.4C11.6667 15.0667 14.3867 14.4 17.4 14.4ZM43.3888 22.48C46.8021 22.4533 49.4154 23.44 51.2288 25.44C53.0421 27.44 53.9354 30.1733 53.9088 33.64C53.9088 35.9867 53.4288 38.0667 52.4688 39.88C51.5088 41.6667 50.2021 43.0533 48.5488 44.04C46.8954 45 45.0154 45.48 42.9088 45.48C39.4154 45.48 36.7488 44.44 34.9088 42.36C33.0954 40.2533 32.1888 37.48 32.1888 34.04C32.1888 31.6933 32.6688 29.6667 33.6288 27.96C34.6154 26.2267 35.9488 24.8933 37.6288 23.96C39.3354 23.0267 41.2554 22.5333 43.3888 22.48ZM43.1088 25.08C41.3221 25.08 40.0421 25.8133 39.2688 27.28C38.5221 28.7467 38.1488 30.8 38.1488 33.44C38.1488 35.9733 38.5754 38.1733 39.4288 40.04C40.2821 41.9067 41.5221 42.84 43.1488 42.84C44.9621 42.84 46.2288 42.0667 46.9488 40.52C47.6688 38.9467 48.0288 36.7467 48.0288 33.92C48.0288 31.3067 47.6288 29.1867 46.8288 27.56C46.0288 25.9067 44.7888 25.08 43.1088 25.08ZM62.4269 11.44C63.5202 11.44 64.3602 11.7333 64.9469 12.32C65.5335 12.9067 65.8269 13.68 65.8269 14.64C65.8269 15.7067 65.4269 16.6 64.6269 17.32C63.8269 18.0133 62.8935 18.36 61.8269 18.36C60.8669 18.36 60.0669 18.08 59.4269 17.52C58.7869 16.9333 58.4669 16.16 58.4669 15.2C58.4669 14.5333 58.6535 13.9067 59.0269 13.32C59.4269 12.7333 59.9335 12.28 60.5469 11.96C61.1602 11.6133 61.7869 11.44 62.4269 11.44ZM65.5069 23.08V45.64C65.5069 48.6 64.8535 50.9467 63.5469 52.68C62.2669 54.44 60.4802 55.32 58.1869 55.32C57.6802 55.32 57.0802 55.2667 56.3869 55.16C55.6935 55.0533 55.2535 54.9467 55.0669 54.84V51.48C55.2269 51.5333 55.5469 51.5867 56.0269 51.64C56.5335 51.6933 56.9602 51.72 57.3069 51.72C58.4002 51.72 59.1202 51.2 59.4669 50.16C59.8135 49.1467 59.9869 47.4533 59.9869 45.08V28.52L57.5869 26.24V24.76L64.2269 22.6L65.5069 23.08ZM81.8738 22.52C84.4071 22.52 86.3804 23.2267 87.7938 24.64C89.2071 26.0533 89.9804 28.0667 90.1138 30.68C90.1404 31.5867 90.1004 32.4267 89.9938 33.2C89.9138 33.9733 89.8604 34.4533 89.8338 34.64H75.9538C76.0604 37.0133 76.6871 38.8533 77.8338 40.16C79.0071 41.44 80.6604 42.08 82.7938 42.08C83.7538 42.08 84.7671 41.9867 85.8338 41.8C86.9271 41.5867 87.8604 41.2933 88.6338 40.92L89.5538 43C88.6471 43.7733 87.3804 44.3867 85.7538 44.84C84.1271 45.2933 82.5271 45.52 80.9538 45.52C77.5404 45.52 74.9004 44.5333 73.0338 42.56C71.1938 40.5867 70.2738 37.8667 70.2738 34.4C70.2738 32.1067 70.7671 30.0667 71.7538 28.28C72.7404 26.4667 74.1138 25.0533 75.8738 24.04C77.6338 23.0267 79.6338 22.52 81.8738 22.52ZM80.7938 25.04C79.4338 25.04 78.3271 25.6267 77.4738 26.8C76.6204 27.9467 76.1138 29.6 75.9538 31.76H84.4738C84.5271 31.12 84.5538 30.6267 84.5538 30.28C84.5538 28.76 84.2604 27.64 83.6738 26.92C83.2471 25.6667 82.2871 25.04 80.7938 25.04Z"/>
</mask>
<path d="M17.4 14.4C19.24 14.4 21.0267 14.52 22.76 14.76C24.52 15 25.9067 15.2667 26.92 15.56L26.52 21.8H23.6L22.16 18.44C21.9467 18.1467 21.3733 17.8667 20.44 17.6C19.5067 17.3333 18.28 17.2 16.76 17.2C14.92 17.2 13.2933 17.72 11.88 18.76C10.4667 19.7733 9.37333 21.1867 8.6 23C7.85333 24.8133 7.48 26.88 7.48 29.2C7.48 31.6533 7.78667 33.9067 8.4 35.96C9.04 38.0133 10.0267 39.68 11.36 40.96C12.6933 42.2133 14.36 42.84 16.36 42.84C17.56 42.84 18.68 42.6533 19.72 42.28C20.7867 41.9067 21.52 41.3333 21.92 40.56V34.32L17.64 33.84V31.16H29.16V33.84L27.12 34.28V43.64C26.6667 43.6133 26.1333 43.6667 25.52 43.8C24.9067 43.9067 23.96 44.1067 22.68 44.4C20.9733 44.8 19.5733 45.0933 18.48 45.28C17.4133 45.4667 16.3333 45.56 15.24 45.56C12.5467 45.56 10.1467 44.92 8.04 43.64C5.96 42.3333 4.34667 40.5467 3.2 38.28C2.05333 36.0133 1.48 33.4667 1.48 30.64C1.48 27.3867 2.16 24.5333 3.52 22.08C4.90667 19.6267 6.81333 17.7333 9.24 16.4C11.6667 15.0667 14.3867 14.4 17.4 14.4ZM43.3888 22.48C46.8021 22.4533 49.4154 23.44 51.2288 25.44C53.0421 27.44 53.9354 30.1733 53.9088 33.64C53.9088 35.9867 53.4288 38.0667 52.4688 39.88C51.5088 41.6667 50.2021 43.0533 48.5488 44.04C46.8954 45 45.0154 45.48 42.9088 45.48C39.4154 45.48 36.7488 44.44 34.9088 42.36C33.0954 40.2533 32.1888 37.48 32.1888 34.04C32.1888 31.6933 32.6688 29.6667 33.6288 27.96C34.6154 26.2267 35.9488 24.8933 37.6288 23.96C39.3354 23.0267 41.2554 22.5333 43.3888 22.48ZM43.1088 25.08C41.3221 25.08 40.0421 25.8133 39.2688 27.28C38.5221 28.7467 38.1488 30.8 38.1488 33.44C38.1488 35.9733 38.5754 38.1733 39.4288 40.04C40.2821 41.9067 41.5221 42.84 43.1488 42.84C44.9621 42.84 46.2288 42.0667 46.9488 40.52C47.6688 38.9467 48.0288 36.7467 48.0288 33.92C48.0288 31.3067 47.6288 29.1867 46.8288 27.56C46.0288 25.9067 44.7888 25.08 43.1088 25.08ZM62.4269 11.44C63.5202 11.44 64.3602 11.7333 64.9469 12.32C65.5335 12.9067 65.8269 13.68 65.8269 14.64C65.8269 15.7067 65.4269 16.6 64.6269 17.32C63.8269 18.0133 62.8935 18.36 61.8269 18.36C60.8669 18.36 60.0669 18.08 59.4269 17.52C58.7869 16.9333 58.4669 16.16 58.4669 15.2C58.4669 14.5333 58.6535 13.9067 59.0269 13.32C59.4269 12.7333 59.9335 12.28 60.5469 11.96C61.1602 11.6133 61.7869 11.44 62.4269 11.44ZM65.5069 23.08V45.64C65.5069 48.6 64.8535 50.9467 63.5469 52.68C62.2669 54.44 60.4802 55.32 58.1869 55.32C57.6802 55.32 57.0802 55.2667 56.3869 55.16C55.6935 55.0533 55.2535 54.9467 55.0669 54.84V51.48C55.2269 51.5333 55.5469 51.5867 56.0269 51.64C56.5335 51.6933 56.9602 51.72 57.3069 51.72C58.4002 51.72 59.1202 51.2 59.4669 50.16C59.8135 49.1467 59.9869 47.4533 59.9869 45.08V28.52L57.5869 26.24V24.76L64.2269 22.6L65.5069 23.08ZM81.8738 22.52C84.4071 22.52 86.3804 23.2267 87.7938 24.64C89.2071 26.0533 89.9804 28.0667 90.1138 30.68C90.1404 31.5867 90.1004 32.4267 89.9938 33.2C89.9138 33.9733 89.8604 34.4533 89.8338 34.64H75.9538C76.0604 37.0133 76.6871 38.8533 77.8338 40.16C79.0071 41.44 80.6604 42.08 82.7938 42.08C83.7538 42.08 84.7671 41.9867 85.8338 41.8C86.9271 41.5867 87.8604 41.2933 88.6338 40.92L89.5538 43C88.6471 43.7733 87.3804 44.3867 85.7538 44.84C84.1271 45.2933 82.5271 45.52 80.9538 45.52C77.5404 45.52 74.9004 44.5333 73.0338 42.56C71.1938 40.5867 70.2738 37.8667 70.2738 34.4C70.2738 32.1067 70.7671 30.0667 71.7538 28.28C72.7404 26.4667 74.1138 25.0533 75.8738 24.04C77.6338 23.0267 79.6338 22.52 81.8738 22.52ZM80.7938 25.04C79.4338 25.04 78.3271 25.6267 77.4738 26.8C76.6204 27.9467 76.1138 29.6 75.9538 31.76H84.4738C84.5271 31.12 84.5538 30.6267 84.5538 30.28C84.5538 28.76 84.2604 27.64 83.6738 26.92C83.2471 25.6667 82.2871 25.04 80.7938 25.04Z" fill="white"/>
<path d="M22.76 14.76L22.3485 17.7317L22.3547 17.7325L22.76 14.76ZM26.92 15.56L29.9139 15.7519L30.0679 13.3481L27.7542 12.6783L26.92 15.56ZM26.52 21.8V24.8H29.3339L29.5139 21.9919L26.52 21.8ZM23.6 21.8L20.8426 22.9818L21.6218 24.8H23.6V21.8ZM22.16 18.44L24.9174 17.2582L24.7846 16.9482L24.5862 16.6755L22.16 18.44ZM20.44 17.6L21.2642 14.7154L21.2642 14.7154L20.44 17.6ZM11.88 18.76L13.6281 21.1981L13.6431 21.1873L13.658 21.1763L11.88 18.76ZM8.6 23L5.84047 21.8231L5.83311 21.8404L5.82597 21.8577L8.6 23ZM8.4 35.96L5.5255 36.8186L5.5306 36.8357L5.5359 36.8527L8.4 35.96ZM11.36 40.96L9.2824 43.1242L9.29378 43.1351L9.30527 43.1459L11.36 40.96ZM19.72 42.28L18.729 39.4484L18.7177 39.4524L18.7064 39.4564L19.72 42.28ZM21.92 40.56L24.5847 41.9383L24.92 41.2899V40.56H21.92ZM21.92 34.32H24.92V31.6376L22.2544 31.3387L21.92 34.32ZM17.64 33.84H14.64V36.5224L17.3056 36.8213L17.64 33.84ZM17.64 31.16V28.16H14.64V31.16H17.64ZM29.16 31.16H32.16V28.16H29.16V31.16ZM29.16 33.84L29.7925 36.7726L32.16 36.2619V33.84H29.16ZM27.12 34.28L26.4875 31.3474L24.12 31.8581V34.28H27.12ZM27.12 43.64L26.9438 46.6348L30.12 46.8217V43.64H27.12ZM25.52 43.8L26.034 46.7556L26.0959 46.7449L26.1573 46.7315L25.52 43.8ZM22.68 44.4L22.0099 41.4758L22.0026 41.4775L21.9954 41.4792L22.68 44.4ZM18.48 45.28L17.9751 42.3228L17.9629 42.3249L18.48 45.28ZM8.04 43.64L6.44415 46.1803L6.4631 46.1922L6.48222 46.2038L8.04 43.64ZM3.2 38.28L5.87695 36.9258L3.2 38.28ZM3.52 22.08L0.908312 20.6038L0.902203 20.6146L0.896185 20.6255L3.52 22.08ZM9.24 16.4L7.79535 13.7707H7.79535L9.24 16.4ZM17.4 17.4C19.1094 17.4 20.7583 17.5115 22.3485 17.7316L23.1715 11.7883C21.295 11.5285 19.3706 11.4 17.4 11.4V17.4ZM22.3547 17.7325C24.0533 17.9641 25.2758 18.2072 26.0858 18.4417L27.7542 12.6783C26.5376 12.3261 24.9867 12.0359 23.1653 11.7875L22.3547 17.7325ZM23.9261 15.3681L23.5261 21.6081L29.5139 21.9919L29.9139 15.7519L23.9261 15.3681ZM26.52 18.8H23.6V24.8H26.52V18.8ZM26.3574 20.6182L24.9174 17.2582L19.4026 19.6218L20.8426 22.9818L26.3574 20.6182ZM24.5862 16.6755C24.0484 15.9361 23.3259 15.5289 22.8865 15.3143C22.3826 15.0682 21.8225 14.8749 21.2642 14.7154L19.6158 20.4846C19.7955 20.5359 19.9385 20.5824 20.0493 20.6226C20.1617 20.6634 20.2261 20.6923 20.2535 20.7057C20.2846 20.7209 20.245 20.7048 20.1655 20.6469C20.1237 20.6164 20.0621 20.568 19.99 20.4991C19.9181 20.4303 19.8274 20.3332 19.7338 20.2045L24.5862 16.6755ZM21.2642 14.7154C19.9561 14.3417 18.4203 14.2 16.76 14.2V20.2C18.1397 20.2 19.0572 20.325 19.6158 20.4846L21.2642 14.7154ZM16.76 14.2C14.3134 14.2 12.0567 14.9053 10.102 16.3437L13.658 21.1763C14.53 20.5347 15.5266 20.2 16.76 20.2V14.2ZM10.1319 16.3219C8.21512 17.6962 6.79976 19.5738 5.84047 21.8231L11.3595 24.1769C11.9469 22.7996 12.7182 21.8504 13.6281 21.1981L10.1319 16.3219ZM5.82597 21.8577C4.90543 24.0933 4.48 26.5586 4.48 29.2H10.48C10.48 27.2014 10.8012 25.5333 11.374 24.1422L5.82597 21.8577ZM4.48 29.2C4.48 31.9029 4.81791 34.4497 5.5255 36.8186L11.2745 35.1014C10.7554 33.3636 10.48 31.4038 10.48 29.2H4.48ZM5.5359 36.8527C6.30175 39.3098 7.52803 41.44 9.2824 43.1242L13.4376 38.7958C12.5253 37.92 11.7782 36.7169 11.2641 35.0673L5.5359 36.8527ZM9.30527 43.1459C11.2489 44.9729 13.6738 45.84 16.36 45.84V39.84C15.0462 39.84 14.1378 39.4538 13.4147 38.7741L9.30527 43.1459ZM16.36 45.84C17.8758 45.84 19.3416 45.6033 20.7336 45.1036L18.7064 39.4564C18.0184 39.7034 17.2442 39.84 16.36 39.84V45.84ZM20.7111 45.1116C22.2779 44.5632 23.7375 43.576 24.5847 41.9383L19.2553 39.1817C19.2671 39.159 19.2728 39.167 19.2222 39.2066C19.1621 39.2536 19.017 39.3476 18.729 39.4484L20.7111 45.1116ZM24.92 40.56V34.32H18.92V40.56H24.92ZM22.2544 31.3387L17.9744 30.8587L17.3056 36.8213L21.5856 37.3013L22.2544 31.3387ZM20.64 33.84V31.16H14.64V33.84H20.64ZM17.64 34.16H29.16V28.16H17.64V34.16ZM26.16 31.16V33.84H32.16V31.16H26.16ZM28.5275 30.9074L26.4875 31.3474L27.7525 37.2126L29.7925 36.7726L28.5275 30.9074ZM24.12 34.28V43.64H30.12V34.28H24.12ZM27.2962 40.6452C26.4885 40.5977 25.6692 40.6975 24.8827 40.8685L26.1573 46.7315C26.5974 46.6358 26.8449 46.629 26.9438 46.6348L27.2962 40.6452ZM25.006 40.8444C24.3097 40.9655 23.2981 41.1806 22.0099 41.4758L23.3501 47.3242C24.6219 47.0327 25.5037 46.8479 26.034 46.7556L25.006 40.8444ZM21.9954 41.4792C20.3185 41.8722 18.9841 42.1505 17.9751 42.3228L18.9849 48.2372C20.1625 48.0361 21.6282 47.7278 23.3646 47.3209L21.9954 41.4792ZM17.9629 42.3249C17.0686 42.4814 16.1617 42.56 15.24 42.56V48.56C16.505 48.56 17.7581 48.4519 18.9971 48.2351L17.9629 42.3249ZM15.24 42.56C13.0435 42.56 11.1919 42.0447 9.59778 41.0762L6.48222 46.2038C9.10142 47.7953 12.0499 48.56 15.24 48.56V42.56ZM9.63585 41.0997C8.03348 40.0931 6.78645 38.7236 5.87695 36.9258L0.523047 39.6342C1.90688 42.3697 3.88652 44.5736 6.44415 46.1803L9.63585 41.0997ZM5.87695 36.9258C4.96567 35.1244 4.48 33.0499 4.48 30.64H-1.52C-1.52 33.8834 -0.859008 36.9023 0.523047 39.6342L5.87695 36.9258ZM4.48 30.64C4.48 27.8136 5.06745 25.4762 6.14382 23.5345L0.896185 20.6255C-0.747454 23.5905 -1.52 26.9597 -1.52 30.64H4.48ZM6.13169 23.5562C7.24919 21.5791 8.75567 20.0891 10.6846 19.0293L7.79535 13.7707C4.871 15.3775 2.56415 17.6743 0.908312 20.6038L6.13169 23.5562ZM10.6846 19.0293C12.6302 17.9603 14.846 17.4 17.4 17.4V11.4C13.9273 11.4 10.7031 12.1731 7.79535 13.7707L10.6846 19.0293ZM43.3888 22.48L43.3653 19.4801L43.3395 19.4803L43.3138 19.4809L43.3888 22.48ZM51.2288 25.44L53.4513 23.4249L51.2288 25.44ZM53.9088 33.64L50.9088 33.6169L50.9088 33.6285V33.64H53.9088ZM52.4688 39.88L55.1114 41.2999L55.1158 41.2918L55.1201 41.2837L52.4688 39.88ZM48.5488 44.04L50.0552 46.6344L50.0707 46.6253L50.0861 46.6161L48.5488 44.04ZM34.9087 42.36L32.635 44.3171L32.6483 44.3325L32.6618 44.3477L34.9087 42.36ZM33.6287 27.96L31.0216 26.4759L31.0178 26.4825L31.014 26.4892L33.6287 27.96ZM37.6287 23.96L36.1893 21.3279L36.1805 21.3327L36.1718 21.3375L37.6287 23.96ZM39.2687 27.28L36.615 25.8808L36.605 25.8998L36.5953 25.9189L39.2687 27.28ZM39.4287 40.04L42.1572 38.7927L39.4287 40.04ZM46.9487 40.52L49.6685 41.7861L49.6726 41.7772L49.6767 41.7684L46.9487 40.52ZM46.8288 27.56L44.1283 28.8667L44.1325 28.8753L44.1367 28.884L46.8288 27.56ZM43.4122 25.4799C46.213 25.458 47.9118 26.248 49.0063 27.4551L53.4513 23.4249C50.919 20.632 47.3912 19.4486 43.3653 19.4801L43.4122 25.4799ZM49.0063 27.4551C50.1827 28.7526 50.9314 30.682 50.9088 33.6169L56.9087 33.6631C56.9394 29.6647 55.9015 26.1274 53.4513 23.4249L49.0063 27.4551ZM50.9088 33.64C50.9088 35.5683 50.5174 37.1541 49.8174 38.4763L55.1201 41.2837C56.3401 38.9793 56.9088 36.4051 56.9088 33.64H50.9088ZM49.8261 38.4601C49.1088 39.7951 48.1731 40.7706 47.0114 41.4639L50.0861 46.6161C52.2311 45.3361 53.9087 43.5383 55.1114 41.2999L49.8261 38.4601ZM47.0423 41.4456C45.8922 42.1134 44.5417 42.48 42.9088 42.48V48.48C45.4892 48.48 47.8986 47.8866 50.0552 46.6344L47.0423 41.4456ZM42.9088 42.48C40.0365 42.48 38.2854 41.6493 37.1557 40.3723L32.6618 44.3477C35.2121 47.2307 38.7943 48.48 42.9088 48.48V42.48ZM37.1825 40.4029C35.9415 38.9612 35.1888 36.9386 35.1888 34.04H29.1887C29.1887 38.0214 30.2494 41.5455 32.635 44.3171L37.1825 40.4029ZM35.1888 34.04C35.1888 32.1064 35.5818 30.6071 36.2435 29.4308L31.014 26.4892C29.7557 28.7263 29.1887 31.2803 29.1887 34.04H35.1888ZM36.2359 29.4441C36.9615 28.1695 37.9048 27.2385 39.0857 26.5825L36.1718 21.3375C33.9927 22.5482 32.2694 24.2838 31.0216 26.4759L36.2359 29.4441ZM39.0682 26.5921C40.3162 25.9096 41.7607 25.5216 43.4637 25.4791L43.3138 19.4809C40.7501 19.545 38.3547 20.1437 36.1893 21.3279L39.0682 26.5921ZM43.1087 22.08C41.8024 22.08 40.4983 22.3504 39.3174 23.0269C38.1242 23.7106 37.2333 24.7083 36.615 25.8808L41.9225 28.6792C42.0776 28.385 42.2133 28.2828 42.3001 28.2331C42.3992 28.1763 42.6284 28.08 43.1087 28.08V22.08ZM36.5953 25.9189C35.5423 27.9873 35.1488 30.582 35.1488 33.44H41.1488C41.1488 31.018 41.5019 29.506 41.9422 28.641L36.5953 25.9189ZM35.1488 33.44C35.1488 36.3054 35.6312 38.9486 36.7003 41.2873L42.1572 38.7927C41.5196 37.398 41.1488 35.6412 41.1488 33.44H35.1488ZM36.7003 41.2873C37.27 42.5335 38.0677 43.6886 39.1946 44.5369C40.3608 45.4147 41.718 45.84 43.1488 45.84V39.84C42.9528 39.84 42.8767 39.7987 42.8029 39.7431C42.6898 39.658 42.4408 39.4131 42.1572 38.7927L36.7003 41.2873ZM43.1488 45.84C44.4846 45.84 45.8234 45.5523 47.022 44.8205C48.2323 44.0816 49.0973 43.013 49.6685 41.7861L44.229 39.2539C44.0802 39.5737 43.9518 39.6651 43.8955 39.6995C43.8275 39.741 43.6263 39.84 43.1488 39.84V45.84ZM49.6767 41.7684C50.6544 39.6318 51.0288 36.9373 51.0288 33.92H45.0288C45.0288 36.556 44.6831 38.2616 44.2208 39.2716L49.6767 41.7684ZM51.0288 33.92C51.0288 31.0358 50.5927 28.4156 49.5208 26.236L44.1367 28.884C44.6648 29.9578 45.0288 31.5775 45.0288 33.92H51.0288ZM49.5292 26.2533C48.95 25.0562 48.121 23.9759 46.9629 23.2038C45.7889 22.4212 44.4631 22.08 43.1087 22.08V28.08C43.4344 28.08 43.5686 28.1521 43.6347 28.1961C43.7165 28.2507 43.9075 28.4105 44.1283 28.8667L49.5292 26.2533ZM64.9469 12.32L67.0682 10.1987V10.1987L64.9469 12.32ZM64.6269 17.32L66.5917 19.5871L66.6129 19.5687L66.6338 19.5499L64.6269 17.32ZM59.4269 17.52L57.3997 19.7315L57.4253 19.7549L57.4514 19.7777L59.4269 17.52ZM59.0269 13.32L56.5482 11.63L56.5214 11.6693L56.4959 11.7094L59.0269 13.32ZM60.5469 11.96L61.9346 14.6198L61.9792 14.5965L62.023 14.5717L60.5469 11.96ZM65.5069 23.08H68.5069V21.001L66.5602 20.271L65.5069 23.08ZM63.5469 52.68L61.1513 50.8741L61.1358 50.8947L61.1207 50.9155L63.5469 52.68ZM56.3869 55.16L56.843 52.1949L56.3869 55.16ZM55.0669 54.84H52.0669V56.581L53.5785 57.4447L55.0669 54.84ZM55.0669 51.48L56.0156 48.6339L52.0669 47.3177V51.48H55.0669ZM56.0269 51.64L55.6956 54.6217L55.7042 54.6226L55.7128 54.6235L56.0269 51.64ZM59.4669 50.16L56.6284 49.1889L56.6246 49.2001L56.6208 49.2113L59.4669 50.16ZM59.9869 28.52H62.9869V27.2321L62.0531 26.345L59.9869 28.52ZM57.5869 26.24H54.5869V27.5279L55.5206 28.415L57.5869 26.24ZM57.5869 24.76L56.6588 21.9071L54.5869 22.5812V24.76H57.5869ZM64.2269 22.6L65.2802 19.791L64.2972 19.4224L63.2988 19.7472L64.2269 22.6ZM62.4269 14.44C62.711 14.44 62.849 14.4787 62.8878 14.4923C62.9132 14.5011 62.8741 14.4899 62.8256 14.4413L67.0682 10.1987C65.7572 8.8877 64.0536 8.44 62.4269 8.44V14.44ZM62.8256 14.4413C62.8265 14.4422 62.8207 14.4364 62.8132 14.4248C62.8097 14.4195 62.8069 14.4144 62.8048 14.4102C62.8026 14.406 62.8018 14.4037 62.8019 14.404C62.802 14.4043 62.8034 14.4081 62.8056 14.4161C62.8078 14.4242 62.8108 14.4371 62.8139 14.4556C62.8202 14.4925 62.8269 14.5526 62.8269 14.64H68.8269C68.8269 13.0196 68.3064 11.4369 67.0682 10.1987L62.8256 14.4413ZM62.8269 14.64C62.8269 14.7891 62.8011 14.8565 62.7888 14.884C62.7762 14.9121 62.7401 14.982 62.62 15.0901L66.6338 19.5499C68.0594 18.2668 68.8269 16.5659 68.8269 14.64H62.8269ZM62.6621 15.0529C62.4121 15.2696 62.1778 15.36 61.8269 15.36V21.36C63.6093 21.36 65.2417 20.757 66.5917 19.5871L62.6621 15.0529ZM61.8269 15.36C61.4934 15.36 61.4246 15.2817 61.4024 15.2623L57.4514 19.7777C58.7091 20.8783 60.2403 21.36 61.8269 21.36V15.36ZM61.454 15.3085C61.4453 15.3005 61.4489 15.3024 61.4578 15.3149C61.4668 15.3278 61.4743 15.3418 61.4789 15.3529C61.4833 15.3636 61.4809 15.3614 61.477 15.3404C61.473 15.3185 61.4669 15.2734 61.4669 15.2H55.4669C55.4669 16.902 56.0705 18.513 57.3997 19.7315L61.454 15.3085ZM61.4669 15.2C61.4669 15.1292 61.477 15.0577 61.5579 14.9306L56.4959 11.7094C55.8301 12.7556 55.4669 13.9375 55.4669 15.2H61.4669ZM61.5056 15.01C61.6349 14.8203 61.7711 14.7051 61.9346 14.6198L59.1592 9.30025C58.096 9.85493 57.2188 10.6464 56.5482 11.63L61.5056 15.01ZM62.023 14.5717C62.2326 14.4533 62.3551 14.44 62.4269 14.44V8.44C61.2186 8.44 60.0878 8.77341 59.0707 9.34831L62.023 14.5717ZM62.5069 23.08V45.64H68.5069V23.08H62.5069ZM62.5069 45.64C62.5069 48.1819 61.9452 49.821 61.1513 50.8741L65.9424 54.4859C67.7619 52.0723 68.5069 49.018 68.5069 45.64H62.5069ZM61.1207 50.9155C60.44 51.8515 59.5811 52.32 58.1869 52.32V58.32C61.3794 58.32 64.0938 57.0285 65.9731 54.4445L61.1207 50.9155ZM58.1869 52.32C57.8784 52.32 57.4383 52.2865 56.843 52.1949L55.9307 58.1251C56.7221 58.2469 57.482 58.32 58.1869 58.32V52.32ZM56.843 52.1949C56.696 52.1723 56.5721 52.1511 56.4693 52.1318C56.3656 52.1122 56.292 52.0962 56.2437 52.0844C56.192 52.0719 56.1895 52.0693 56.2212 52.0801C56.2385 52.0859 56.2752 52.099 56.3261 52.1207C56.375 52.1416 56.4558 52.1784 56.5553 52.2353L53.5785 57.4447C54.0616 57.7208 54.5691 57.8523 54.8301 57.9156C55.1648 57.9967 55.5401 58.065 55.9307 58.1251L56.843 52.1949ZM58.0669 54.84V51.48H52.0669V54.84H58.0669ZM54.1182 54.326C54.6264 54.4955 55.2588 54.5731 55.6956 54.6217L56.3582 48.6583C56.149 48.6351 56.0073 48.6154 55.9201 48.6008C55.8773 48.5937 55.862 48.5902 55.8677 48.5914C55.8713 48.5922 55.8852 48.5954 55.9074 48.6013C55.9288 48.607 55.9663 48.6175 56.0156 48.6339L54.1182 54.326ZM55.7128 54.6235C56.2803 54.6833 56.8191 54.72 57.3069 54.72V48.72C57.1013 48.72 56.7868 48.7034 56.3409 48.6565L55.7128 54.6235ZM57.3069 54.72C58.3362 54.72 59.444 54.4694 60.4233 53.762C61.402 53.0552 61.988 52.0833 62.3129 51.1087L56.6208 49.2113C56.599 49.2767 56.6517 49.0848 56.9104 48.898C57.1698 48.7106 57.3709 48.72 57.3069 48.72V54.72ZM62.3054 51.1311C62.8258 49.6098 62.9869 47.4811 62.9869 45.08H56.9869C56.9869 47.4255 56.8013 48.6835 56.6284 49.1889L62.3054 51.1311ZM62.9869 45.08V28.52H56.9869V45.08H62.9869ZM62.0531 26.345L59.6531 24.065L55.5206 28.415L57.9206 30.695L62.0531 26.345ZM60.5869 26.24V24.76H54.5869V26.24H60.5869ZM58.5149 27.6128L65.1549 25.4529L63.2988 19.7472L56.6588 21.9071L58.5149 27.6128ZM63.1735 25.409L64.4535 25.889L66.5602 20.271L65.2802 19.791L63.1735 25.409ZM87.7937 24.64L85.6724 26.7613V26.7613L87.7937 24.64ZM90.1138 30.68L93.1125 30.5918L93.1115 30.5595L93.1099 30.5271L90.1138 30.68ZM89.9938 33.2L87.0219 32.7901L87.0149 32.8406L87.0097 32.8913L89.9938 33.2ZM89.8337 34.64V37.64H92.4356L92.8036 35.0643L89.8337 34.64ZM75.9538 34.64V31.64H72.8159L72.9568 34.7747L75.9538 34.64ZM77.8337 40.16L75.5789 42.1388L75.6003 42.1632L75.6223 42.1872L77.8337 40.16ZM85.8337 41.8L86.3509 44.7551L86.3796 44.7501L86.4083 44.7445L85.8337 41.8ZM88.6338 40.92L91.3774 39.7065L90.1227 36.8699L87.3295 38.2183L88.6338 40.92ZM89.5537 43L91.5006 45.2825L93.2019 43.8314L92.2974 41.7865L89.5537 43ZM85.7538 44.84L86.5591 47.7299L85.7538 44.84ZM73.0338 42.56L70.8396 44.6059L70.8469 44.6138L70.8543 44.6216L73.0338 42.56ZM71.7538 28.28L74.3799 29.7303L74.3844 29.7221L74.3889 29.7138L71.7538 28.28ZM75.8737 24.04L74.3769 21.4401L75.8737 24.04ZM77.4737 26.8L79.8804 28.591L79.8903 28.5778L79.9 28.5645L77.4737 26.8ZM75.9538 31.76L72.9619 31.5384L72.7233 34.76H75.9538V31.76ZM84.4737 31.76V34.76H87.2341L87.4634 32.0091L84.4737 31.76ZM83.6738 26.92L80.8338 27.8868L81.0075 28.3971L81.348 28.815L83.6738 26.92ZM81.8737 25.52C83.8352 25.52 84.9623 26.0512 85.6724 26.7613L89.9151 22.5187C87.7985 20.4021 84.979 19.52 81.8737 19.52V25.52ZM85.6724 26.7613C86.4151 27.504 87.0102 28.7265 87.1176 30.8329L93.1099 30.5271C92.9507 27.4069 91.9991 24.6027 89.9151 22.5187L85.6724 26.7613ZM87.1151 30.7682C87.1376 31.5344 87.1025 32.2057 87.0219 32.7901L92.9656 33.6099C93.0983 32.6477 93.1433 31.639 93.1125 30.5918L87.1151 30.7682ZM87.0097 32.8913C86.9273 33.6875 86.8804 34.1001 86.8639 34.2157L92.8036 35.0643C92.8404 34.8066 92.9002 34.2592 92.9778 33.5087L87.0097 32.8913ZM89.8337 31.64H75.9538V37.64H89.8337V31.64ZM72.9568 34.7747C73.0829 37.5814 73.8424 40.1599 75.5789 42.1388L80.0886 38.1812C79.5318 37.5467 79.0379 36.4453 78.9507 34.5053L72.9568 34.7747ZM75.6223 42.1872C77.4901 44.2248 80.0266 45.08 82.7937 45.08V39.08C81.2943 39.08 80.524 38.6552 80.0452 38.1328L75.6223 42.1872ZM82.7937 45.08C83.9474 45.08 85.1347 44.9679 86.3509 44.7551L85.3166 38.8449C84.3994 39.0054 83.5601 39.08 82.7937 39.08V45.08ZM86.4083 44.7445C87.6838 44.4956 88.8761 44.1343 89.938 43.6217L87.3295 38.2183C86.8448 38.4524 86.1704 38.6777 85.2592 38.8555L86.4083 44.7445ZM85.8901 42.1335L86.8101 44.2135L92.2974 41.7865L91.3774 39.7065L85.8901 42.1335ZM87.6069 40.7175C87.1404 41.1154 86.318 41.5684 84.9484 41.9501L86.5591 47.7299C88.4428 47.2049 90.1537 46.4313 91.5006 45.2825L87.6069 40.7175ZM84.9484 41.9501C83.5648 42.3357 82.2357 42.52 80.9538 42.52V48.52C82.8185 48.52 84.6894 48.251 86.5591 47.7299L84.9484 41.9501ZM80.9538 42.52C78.1399 42.52 76.3752 41.7268 75.2132 40.4984L70.8543 44.6216C73.4257 47.3399 76.9409 48.52 80.9538 48.52V42.52ZM75.2279 40.5141C74.0406 39.2408 73.2738 37.3313 73.2738 34.4H67.2738C67.2738 38.402 68.3469 41.9326 70.8396 44.6059L75.2279 40.5141ZM73.2738 34.4C73.2738 32.5501 73.6676 31.0202 74.3799 29.7303L69.1276 26.8297C67.8666 29.1131 67.2738 31.6632 67.2738 34.4H73.2738ZM74.3889 29.7138C75.1156 28.3783 76.0987 27.3722 77.3706 26.6399L74.3769 21.4401C72.1288 22.7344 70.3652 24.555 69.1186 26.8462L74.3889 29.7138ZM77.3706 26.6399C78.6295 25.9151 80.1036 25.52 81.8737 25.52V19.52C79.1639 19.52 76.638 20.1383 74.3769 21.4401L77.3706 26.6399ZM80.7937 22.04C78.4013 22.04 76.4213 23.1466 75.0475 25.0355L79.9 28.5645C80.2329 28.1067 80.4662 28.04 80.7937 28.04V22.04ZM75.0671 25.009C73.7409 26.791 73.1439 29.0826 72.9619 31.5384L78.9456 31.9816C79.0836 30.1174 79.4999 29.1024 79.8804 28.591L75.0671 25.009ZM75.9538 34.76H84.4737V28.76H75.9538V34.76ZM87.4634 32.0091C87.5189 31.3433 87.5537 30.7521 87.5537 30.28H81.5537C81.5537 30.5012 81.5353 30.8967 81.4841 31.5109L87.4634 32.0091ZM87.5537 30.28C87.5537 28.4768 87.2242 26.528 85.9995 25.025L81.348 28.815C81.3121 28.7708 81.3676 28.8158 81.4316 29.0601C81.4967 29.3086 81.5537 29.7015 81.5537 30.28H87.5537ZM86.5137 25.9532C86.1193 24.7946 85.3998 23.733 84.2736 22.9979C83.1784 22.2829 81.9491 22.04 80.7937 22.04V28.04C80.9601 28.04 81.046 28.0577 81.0713 28.0642C81.0923 28.0695 81.0565 28.063 80.9939 28.0221C80.9639 28.0026 80.9337 27.9789 80.9053 27.952C80.8769 27.9252 80.8551 27.8995 80.8394 27.8783C80.8074 27.8348 80.8133 27.8267 80.8338 27.8868L86.5137 25.9532Z" fill="#29DA9A" fill-opacity="0.54" mask="url(#path-1-outside-1_197_77)"/>
<g clip-path="url(#clip0_197_77)">
<path d="M96 17.75C95.3572 17.75 94.7289 17.9406 94.1944 18.2977C93.6599 18.6548 93.2434 19.1624 92.9974 19.7563C92.7514 20.3501 92.687 21.0036 92.8124 21.634C92.9379 22.2645 93.2474 22.8436 93.7019 23.2981C94.1564 23.7526 94.7355 24.0622 95.366 24.1876C95.9964 24.313 96.6499 24.2486 97.2437 24.0026C97.8376 23.7566 98.3452 23.3401 98.7023 22.8056C99.0594 22.2711 99.25 21.6428 99.25 21C99.2491 20.1383 98.9064 19.3122 98.2971 18.7029C97.6878 18.0936 96.8617 17.7509 96 17.75ZM96 23.75C95.4561 23.75 94.9244 23.5887 94.4722 23.2865C94.0199 22.9844 93.6675 22.5549 93.4593 22.0524C93.2512 21.5499 93.1967 20.9969 93.3028 20.4635C93.409 19.9301 93.6709 19.4401 94.0555 19.0555C94.4401 18.6709 94.9301 18.4089 95.4635 18.3028C95.997 18.1967 96.5499 18.2512 97.0524 18.4593C97.5549 18.6675 97.9844 19.0199 98.2865 19.4722C98.5887 19.9244 98.75 20.4561 98.75 21C98.7492 21.7291 98.4592 22.4281 97.9436 22.9436C97.4281 23.4592 96.7291 23.7492 96 23.75ZM96.7216 21.3816C96.918 21.2764 97.0737 21.1086 97.1639 20.9048C97.2541 20.7011 97.2737 20.473 97.2195 20.2569C97.1653 20.0408 97.0405 19.8489 96.8649 19.7118C96.6892 19.5746 96.4728 19.5001 96.25 19.5H95.25C95.1837 19.5 95.1201 19.5263 95.0732 19.5732C95.0263 19.6201 95 19.6837 95 19.75V22.25C95 22.3163 95.0263 22.3799 95.0732 22.4268C95.1201 22.4737 95.1837 22.5 95.25 22.5C95.3163 22.5 95.3799 22.4737 95.4268 22.4268C95.4737 22.3799 95.5 22.3163 95.5 22.25V21.5H96.1997L96.7934 22.3888C96.8302 22.4439 96.8875 22.4823 96.9525 22.4953C97.0176 22.5083 97.0851 22.4949 97.1403 22.4581C97.1955 22.4213 97.2338 22.3641 97.2468 22.2991C97.2599 22.234 97.2465 22.1664 97.2097 22.1112L96.7216 21.3816ZM95.5 20H96.25C96.3826 20 96.5098 20.0527 96.6036 20.1464C96.6973 20.2402 96.75 20.3674 96.75 20.5C96.75 20.6326 96.6973 20.7598 96.6036 20.8536C96.5098 20.9473 96.3826 21 96.25 21H95.5V20Z" fill="#29DA9A" fill-opacity="0.54"/>
</g>
<defs>
<clipPath id="clip0_197_77">
<rect width="8" height="8" fill="white" transform="translate(92 17)"/>
</clipPath>
</defs>
</svg>
