<svg width="58" height="68" viewBox="0 0 58 68" fill="none" xmlns="http://www.w3.org/2000/svg">
<path d="M27.6748 18.3546C23.2792 6.81694 13.0398 5.90452 8.26314 10.8198C4.37573 14.7344 2.52095 24.5355 6.05265 33.4537C12.176 48.7882 27.6748 57 27.6748 57C27.6748 57 43.1736 48.9354 49.297 33.6009C52.8287 24.771 50.9739 14.9993 47.0865 10.967C42.3098 5.90452 32.0704 6.81694 27.6748 18.3546Z" stroke="#38E4AE" stroke-opacity="0.13" stroke-width="1.5" stroke-linecap="round" stroke-linejoin="round"/>
<path d="M27.6748 18.3546C23.2792 6.81694 13.0398 5.90452 8.26314 10.8198C4.37573 14.7344 2.52095 24.5355 6.05265 33.4537C12.176 48.7882 27.6748 57 27.6748 57C27.6748 57 43.1736 48.9354 49.297 33.6009C52.8287 24.771 50.9739 14.9993 47.0865 10.967C42.3098 5.90452 32.0704 6.81694 27.6748 18.3546Z" stroke="#343E3D" stroke-opacity="0.2" stroke-width="1.5" stroke-linecap="round" stroke-linejoin="round"/>
<path d="M6.91846 33.5H18.049L25.2145 42L32.3801 25L37.1571 33.5H48.2877" stroke="#38E4AE" stroke-opacity="0.13" stroke-width="2" stroke-linecap="round" stroke-linejoin="round"/>
<path d="M6.91846 33.5H18.049L25.2145 42L32.3801 25L37.1571 33.5H48.2877" stroke="#343E3D" stroke-opacity="0.2" stroke-width="2" stroke-linecap="round" stroke-linejoin="round"/>
</svg>
