<svg width="135" height="123" viewBox="0 0 135 123" fill="none" xmlns="http://www.w3.org/2000/svg">
<path d="M83.0147 51.25C88.4018 51.25 92.7739 55.268 92.7739 60.2188V76.875H92.7516V78.1563C92.7516 79.1757 92.3109 80.1534 91.5266 80.8742C90.7422 81.595 89.6783 82 88.5691 82C87.4598 82 86.396 81.595 85.6116 80.8742C84.8272 80.1534 84.3866 79.1757 84.3866 78.1563V66.625H84.4089V60.2188C84.4089 59.8789 84.262 59.5531 84.0005 59.3128C83.7391 59.0725 83.3844 58.9375 83.0147 58.9375H52.3318C51.962 58.9375 51.6074 59.0725 51.3459 59.3128C51.0845 59.5531 50.9376 59.8789 50.9376 60.2188V76.875H50.9264V78.1563C50.9264 79.1757 50.4858 80.1534 49.7014 80.8742C48.917 81.595 47.8532 82 46.7439 82C45.6347 82 44.5708 81.595 43.7864 80.8742C43.0021 80.1534 42.5614 79.1757 42.5614 78.1563V66.625H42.5726V60.2188C42.5726 55.268 46.9391 51.25 52.3318 51.25H83.0147ZM115.058 60.2188V78.1563C115.058 79.1757 115.499 80.1534 116.283 80.8742C117.068 81.595 118.132 82 119.241 82C120.35 82 121.414 81.595 122.198 80.8742C122.983 80.1534 123.423 79.1757 123.423 78.1563V60.2188C123.423 57.8401 122.395 55.5589 120.565 53.8769C118.735 52.1949 116.252 51.25 113.664 51.25H94.8428C96.7556 53.3769 98.0048 56.0265 98.2892 58.9375H113.664C114.034 58.9375 114.389 59.0725 114.65 59.3128C114.911 59.5531 115.058 59.8789 115.058 60.2188ZM11.8896 78.1563C11.8896 79.1757 12.3303 80.1534 13.1147 80.8742C13.8991 81.595 14.9629 82 16.0722 82C17.1814 82 18.2453 81.595 19.0296 80.8742C19.814 80.1534 20.2547 79.1757 20.2547 78.1563V60.2188C20.2547 59.8789 20.4016 59.5531 20.663 59.3128C20.9245 59.0725 21.2791 58.9375 21.6488 58.9375H37.0572C37.3353 56.114 38.5368 53.434 40.5036 51.25H21.6488C19.0605 51.25 16.5783 52.1949 14.7481 53.8769C12.9178 55.5589 11.8896 57.8401 11.8896 60.2188V78.1563ZM67.6565 15.375C72.0936 15.375 76.3489 16.9949 79.4864 19.8782C82.6239 22.7616 84.3866 26.6723 84.3866 30.75C84.3866 34.8277 82.6239 38.7384 79.4864 41.6218C76.3489 44.5051 72.0936 46.125 67.6565 46.125C63.2194 46.125 58.9641 44.5051 55.8266 41.6218C52.6891 38.7384 50.9264 34.8277 50.9264 30.75C50.9264 26.6723 52.6891 22.7616 55.8266 19.8782C58.9641 16.9949 63.2194 15.375 67.6565 15.375ZM67.6565 23.0625C65.438 23.0625 63.3103 23.8724 61.7415 25.3141C60.1728 26.7558 59.2915 28.7111 59.2915 30.75C59.2915 32.7889 60.1728 34.7442 61.7415 36.1859C63.3103 37.6276 65.438 38.4375 67.6565 38.4375C69.875 38.4375 72.0027 37.6276 73.5715 36.1859C75.1402 34.7442 76.0215 32.7889 76.0215 30.75C76.0215 28.7111 75.1402 26.7558 73.5715 25.3141C72.0027 23.8724 69.875 23.0625 67.6565 23.0625ZM103.905 20.5C107.603 20.5 111.149 21.8499 113.763 24.2527C116.378 26.6555 117.847 29.9144 117.847 33.3125C117.847 36.7106 116.378 39.9695 113.763 42.3723C111.149 44.7751 107.603 46.125 103.905 46.125C100.207 46.125 96.6612 44.7751 94.0467 42.3723C91.4321 39.9695 89.9632 36.7106 89.9632 33.3125C89.9632 29.9144 91.4321 26.6555 94.0467 24.2527C96.6612 21.8499 100.207 20.5 103.905 20.5ZM103.905 28.1875C102.426 28.1875 101.007 28.7275 99.9616 29.6886C98.9158 30.6497 98.3283 31.9533 98.3283 33.3125C98.3283 34.6717 98.9158 35.9753 99.9616 36.9364C101.007 37.8975 102.426 38.4375 103.905 38.4375C105.384 38.4375 106.802 37.8975 107.848 36.9364C108.894 35.9753 109.482 34.6717 109.482 33.3125C109.482 31.9533 108.894 30.6497 107.848 29.6886C106.802 28.7275 105.384 28.1875 103.905 28.1875ZM31.408 20.5C35.1056 20.5 38.6517 21.8499 41.2663 24.2527C43.8809 26.6555 45.3498 29.9144 45.3498 33.3125C45.3498 36.7106 43.8809 39.9695 41.2663 42.3723C38.6517 44.7751 35.1056 46.125 31.408 46.125C27.7105 46.125 24.1643 44.7751 21.5498 42.3723C18.9352 39.9695 17.4663 36.7106 17.4663 33.3125C17.4663 29.9144 18.9352 26.6555 21.5498 24.2527C24.1643 21.8499 27.7105 20.5 31.408 20.5ZM31.408 28.1875C29.929 28.1875 28.5106 28.7275 27.4647 29.6886C26.4189 30.6497 25.8314 31.9533 25.8314 33.3125C25.8314 34.6717 26.4189 35.9753 27.4647 36.9364C28.5106 37.8975 29.929 38.4375 31.408 38.4375C32.8871 38.4375 34.3055 37.8975 35.3514 36.9364C36.3972 35.9753 36.9847 34.6717 36.9847 33.3125C36.9847 31.9533 36.3972 30.6497 35.3514 29.6886C34.3055 28.7275 32.8871 28.1875 31.408 28.1875ZM16.0722 87.125C14.9629 87.125 13.8991 87.53 13.1147 88.2508C12.3303 88.9717 11.8896 89.9493 11.8896 90.9688V93.5313C11.8896 98.6284 14.0929 103.517 18.0148 107.121C21.9367 110.725 27.2559 112.75 32.8022 112.75H102.511C108.057 112.75 113.376 110.725 117.298 107.121C121.22 103.517 123.423 98.6284 123.423 93.5313V90.9688C123.423 89.9493 122.983 88.9717 122.198 88.2508C121.414 87.53 120.35 87.125 119.241 87.125H16.0722ZM32.8022 105.063C29.7159 105.062 26.7378 104.017 24.4374 102.126C22.137 100.235 20.6757 97.6313 20.3327 94.8125H114.98C114.637 97.6313 113.176 100.235 110.876 102.126C108.575 104.017 105.597 105.062 102.511 105.063H32.8022Z" fill="#29DA9A" fill-opacity="0.54"/>
</svg>
